<svg id="Layer_2" data-name="Layer 2" xmlns="http://www.w3.org/2000/svg" viewBox="0 0 512 512">
    <defs>
        <style>.cls-1{fill:#45b2e5;}.cls-2{fill:#fff;}</style>
    </defs>
    <path class="cls-1" d="M67.93,46.32,214.39,71.89a50.78,50.78,0,0,0-5.7,16.62L65,63.42a8.68,8.68,0,0,1,1.49-17.23A8.41,8.41,0,0,1,67.93,46.32Z" />
    <path class="cls-1" d="M461.92,123.92a8.7,8.7,0,0,1-8.55,7.18,8.41,8.41,0,0,1-1.49-.13L309.31,106.08a51.6,51.6,0,0,0,.28-17.57l145.28,25.37A8.7,8.7,0,0,1,461.92,123.92Z" />
    <rect class="cls-1" x="237.93" y="124.5" width="42.43" height="282.86" />
    <rect class="cls-1" x="93" y="400.29" width="331.71" height="64.29" rx="20.36" />
    <path class="cls-1" d="M259.14,75.29A21.21,21.21,0,1,1,237.93,96.5a21.21,21.21,0,0,1,21.21-21.21m0-19A40.21,40.21,0,1,0,299.36,96.5a40.26,40.26,0,0,0-40.22-40.21Z" />
    <path class="cls-1" d="M151.64,249.57a75.36,75.36,0,1,1-150.71,0Z" />
    <path class="cls-1" d="M512,312.57a75.36,75.36,0,1,1-150.71,0Z" />
    <polygon class="cls-1" points="65.36 75.29 12 256 32.57 253.07 76.28 108.43 121.29 258.86 138.64 252.43 85.29 75.29 65.36 75.29" />
    <polygon class="cls-1" points="426.68 141.36 373.32 322.07 393.89 319.14 437.61 174.5 482.61 324.93 499.97 318.5 446.61 141.36 426.68 141.36" />
</svg>