<svg id="Layer_1" data-name="Layer 1" xmlns="http://www.w3.org/2000/svg" xmlns:xlink="http://www.w3.org/1999/xlink" viewBox="0 0 544.19 465.12"><defs><style>.cls-1{fill:#6466ae;}.cls-1,.cls-2,.cls-6{opacity:0.1;isolation:isolate;}.cls-2,.cls-3{fill:#45b2e5;}.cls-4{fill:url(#linear-gradient);}.cls-5{fill:#4c4a81;}.cls-7{fill:#ae6e79;}.cls-8{fill:#454053;}.cls-9{fill:#fff;}.cls-10{fill:#2f2e41;}</style><linearGradient id="linear-gradient" x1="-26.21" y1="621.56" x2="-26.21" y2="623.24" gradientTransform="matrix(74.15, 0, 0, -146.1, 2318.52, 91256.46)" gradientUnits="userSpaceOnUse"><stop offset="0" stop-color="gray" stop-opacity="0.25"/><stop offset="0.54" stop-color="gray" stop-opacity="0.12"/><stop offset="1" stop-color="gray" stop-opacity="0.1"/></linearGradient></defs><g id="Group_151" data-name="Group 151"><ellipse id="Ellipse_2698" data-name="Ellipse 2698" class="cls-1" cx="383.74" cy="442.37" rx="53.77" ry="5.3"/><path id="Path_332" data-name="Path 332" class="cls-2" d="M240.1,15.37c23.68-8.8,52.51-1.23,77.13,9.81C394.56,59.87,450.9,125.72,495.65,192.8c16.21,24.29,31.6,49.65,37.69,76.77,12.41,55.19-20,112.33-75,132.36-18.72,6.81-39.27,9.61-59.87,11.16-36.61,2.78-74.52,1.68-110.84-8.6-25.89-7.34-50.4-19.14-73.89-32.19C148.14,335.85,88.21,288.52,45.05,230.7c-18.93-25.36-34.94-53.95-35.4-83.21s18.61-58.67,50-63.64c13-2.06,26.69.08,40.08,2.28,19.71,3.25,39.69,6.66,59.17,5.25,20.12-1.48,46.3-9.34,50-28.56C212.75,42.19,216.45,24.17,240.1,15.37Z"/><path id="Path_333" data-name="Path 333" class="cls-3" d="M137.59,412s25.31-1.52,22.32,16.21a4.31,4.31,0,0,1-2.25,4.55s0-1.31-2.59-.87a11.52,11.52,0,0,1-2.75.14,5.73,5.73,0,0,1-3.36-1.39h0s-7.12-2.94-9.88-14.56c0,0-2.05-2.54-2-3.2l4.27,1.83a7.64,7.64,0,0,0-.31,5.64s.14-5.53,1-5.4c.17,0,2.22,1.05,2.22,1.05s-2.51,5.36-.62,9.26c0,0-.72-6.61,1.4-8.88l3,1.76s-2.94,5.55-.94,10.06c0,0-.53-6.94,1.57-9.64l2.73,2.1s-2.76,5.46-1.08,9.22c0,0,.22-8.07,1.66-8.69a16.14,16.14,0,0,1,2.75,3s-1.89,4-.72,6.05c0,0,.72-5.38,1.31-5.4a17.68,17.68,0,0,1,2.62,6,12.87,12.87,0,0,0-2.05-6.35,7.15,7.15,0,0,1,3.64,1.89s-.37-2.53-4.22-2.75a16.18,16.18,0,0,0-2.49-2.86,15.51,15.51,0,0,1,6.16.71s-2-2.38-6.86-1.3L149.43,418s5-.69,7.18.08c0,0-2.46-2.1-7.9-.58l-2.93-1.75a26.8,26.8,0,0,1,6.86-.59s-2.7-1.46-7.72.12l-2.1-.93s3.15-.62,4.08-.72,1-.35,1-.35a10.88,10.88,0,0,0-5.92.65A24,24,0,0,1,137.59,412Z"/><ellipse id="Ellipse_2699" data-name="Ellipse 2699" class="cls-1" cx="155.02" cy="434.35" rx="17.91" ry="3.03"/><path id="Path_334" data-name="Path 334" class="cls-3" d="M103.7,400.12s14.27-.86,12.58,9.13a2.44,2.44,0,0,1-1.26,2.57s0-.74-1.46-.48a6.69,6.69,0,0,1-1.55.07,3.19,3.19,0,0,1-1.9-.78h0s-4-1.66-5.58-8.22c0,0-1.15-1.43-1.11-1.8l2.41,1.05a4.4,4.4,0,0,0-.18,3.19s.08-3.12.53-3.05c.09,0,1.25.6,1.25.6a7.17,7.17,0,0,0-.34,5.25s-.41-3.73.78-5l1.7,1a7.46,7.46,0,0,0-.53,5.67s-.29-3.91.89-5.43l1.53,1.2s-1.57,3.08-.6,5.19c0,0,.12-4.55.94-4.89a9.45,9.45,0,0,1,1.55,1.67s-1,2.23-.41,3.41c0,0,.41-3,.74-3a10.07,10.07,0,0,1,1.48,3.39,7.41,7.41,0,0,0-1.16-3.59,4.08,4.08,0,0,1,2,1.05s-.2-1.42-2.38-1.54a9,9,0,0,0-1.4-1.62,8.88,8.88,0,0,1,3.47.4,3.89,3.89,0,0,0-3.87-.73l-1.51-1.24a12.51,12.51,0,0,1,4,0,5,5,0,0,0-4.46-.32l-1.64-1a15.21,15.21,0,0,1,3.86-.34,5.94,5.94,0,0,0-4.35.07l-1.18-.52s1.78-.35,2.3-.41.55-.19.55-.19a6.16,6.16,0,0,0-3.34.37A14.64,14.64,0,0,1,103.7,400.12Z"/><ellipse id="Ellipse_2700" data-name="Ellipse 2700" class="cls-1" cx="113.52" cy="412.69" rx="10.1" ry="1.71"/><path id="Path_335" data-name="Path 335" class="cls-3" d="M454.66,409.73s17.22-1.05,15.21,11a3,3,0,0,1-1.53,3.1s0-.9-1.77-.59a8.38,8.38,0,0,1-1.87.09,3.88,3.88,0,0,1-2.29-.95h0s-4.84-2-6.73-9.92c0,0-1.39-1.72-1.34-2.16l2.9,1.23a5.28,5.28,0,0,0-.21,3.85s.1-3.77.65-3.67c.12,0,1.52.72,1.52.72s-1.71,3.67-.42,6.29c0,0-.49-4.5,1-6l2,1.19s-2,3.78-.64,6.85c0,0-.35-4.71,1.05-6.55l1.85,1.44s-1.88,3.72-.74,6.29c0,0,.15-5.49,1.14-5.91a11.21,11.21,0,0,1,1.87,2s-1.29,2.7-.49,4.12c0,0,.49-3.66.89-3.66a12,12,0,0,1,1.78,4.08,8.69,8.69,0,0,0-1.39-4.32,4.94,4.94,0,0,1,2.48,1.28s-.25-1.71-2.88-1.86a11.16,11.16,0,0,0-1.68-2,10.61,10.61,0,0,1,4.19.48,4.72,4.72,0,0,0-4.67-.88l-1.83-1.5a15.14,15.14,0,0,1,4.89.05s-1.68-1.43-5.38-.39l-2-1.19a18.29,18.29,0,0,1,4.67-.4,7.13,7.13,0,0,0-5.24.08l-1.43-.64s2.15-.42,2.78-.48.66-.24.66-.24a7.39,7.39,0,0,0-4,.44A17.17,17.17,0,0,1,454.66,409.73Z"/><ellipse id="Ellipse_2701" data-name="Ellipse 2701" class="cls-1" cx="466.53" cy="424.91" rx="12.19" ry="2.06"/><path id="Path_336" data-name="Path 336" class="cls-4" d="M437.51,282.44a37.29,37.29,0,0,1-.57-5.59c0-2.25-3.06-4.24-3.06-4.24s-1.89-4.37-3.15-5-5.14-6.36-5.14-6.36a5.18,5.18,0,0,0-1.18-3.08,44,44,0,0,1-3.18-4.81h0c-.53-.63-.26-1.09-1.05-4.81A4.14,4.14,0,0,0,420,248a.73.73,0,0,0-.08-.25,6.27,6.27,0,0,0,1.48-6.51,2.63,2.63,0,0,0-.74-1.16c-.89-.72-2.31-.42-3.22-1.11l1-4.29c.23-1,.36-2.37-.56-2.94a5.27,5.27,0,0,0-1.08-.36,5.1,5.1,0,0,1-2.9-3.78,12.94,12.94,0,0,1-.31-4.72c.18-1.52.62-3,.79-4.53a12.46,12.46,0,0,0-1.93-8,6.18,6.18,0,0,0-2.54-2.4c-1-.44-2.1-.53-3-1-2-1.24-1.85-4.2-3.41-5.89s-4.32-1.68-6.59-1.1a19.85,19.85,0,0,1-6.85,1.32c-1.5-.16-2.91-.85-4.41-1a4.64,4.64,0,0,0-1.29.06v-.05a2.8,2.8,0,0,0-2.4,1.88,2.76,2.76,0,0,0-.07.76c0,.61.14,1.25.15,1.84a1.76,1.76,0,0,1-.42,1.3c-.3.32-.74.48-1.05.81a1.31,1.31,0,0,0-.38,1c0,.93,1.16,1.75,1.94,2.13h0c-.21.21-.42.43-.61.66a13.82,13.82,0,0,0-3.47,9.17,14,14,0,0,0,8.51,12.78l-.11.33a17.78,17.78,0,0,1-.77,2,3.93,3.93,0,0,0-3.29.36,8.25,8.25,0,0,1-5.21.77,71.49,71.49,0,0,0-9.57-1c-.66.26-1.95-.9-2.8.64s-1.23,2.38-2.09,2.77-2.35,1.6-2.15,1.86-2.15,1.8-2.15,1.8a10.62,10.62,0,0,1-3.19,2.37,18.41,18.41,0,0,0-3.64,1.87l-2.87,2.24s-2.15.32-1.5-1.15-1.18-3.34-1.18-3.34-3.64-7.39-3.64-8.92-3-8-3-8l-.37,0-.17-.47c-.55-1.55-1.26-3.45-1.81-4.56-1-2.12-1.69-2.34-1.69-2.34s-12.63-9.48-20.82-6.59,15,11.49,17,12.4a3.87,3.87,0,0,1,1.62,2.52,10.79,10.79,0,0,0-4.48,4s5,11.11,5.14,13.87,3.46,10.48,3.46,10.48a7.31,7.31,0,0,0,7.93,5.4s9.25,1.7,11.27,0a16.19,16.19,0,0,1,4.82-3.23,3.78,3.78,0,0,0,1.82-1.28s-3.06,19.27-4.56,20.94-14.75,23.31-10,27.17a94.23,94.23,0,0,0,11.9,7.87c.41.2,1.62-1.82,3.35-3.25v1.12c0,7.69,1.05,19.39,2.45,22,2.1,3.86,1.24,11.31,1.24,11.31a8.92,8.92,0,0,0,3.52.84c.06.25.13.52.2.79a106.67,106.67,0,0,0,4,12.82c1.43,2.7,2.47,11.25,2.47,11.25a78.33,78.33,0,0,1,.53,9.56,56.49,56.49,0,0,0,1.29,8.39h0c-.53,6-1.52,17.64-1.68,21.84h0v.7h0a3.57,3.57,0,0,0,0,.8,2.66,2.66,0,0,1-.09,1.19,21.11,21.11,0,0,1-1.41,3.36,17.1,17.1,0,0,0-.63,1.63,3,3,0,0,0-1.52,2.16c-.65,2.51-1.62,9.44-1.62,9.44a16.94,16.94,0,0,1-1.18,5.21c-.77,1-1.57,7,4,7.77a8,8,0,0,0,7.94-2.93l-.2-16.82v0a2.22,2.22,0,0,0,.29-.46v0l.12-.26.05-.12.08-.21v-.07a11.06,11.06,0,0,0,.47-5v-.71a2,2,0,0,1,0-.34v-.07l0-.2v-.09a.38.38,0,0,1,0-.21v-.05c0-.24.11-.53.18-.76v-.06l.08-.25h0c.08-.26.17-.52.26-.8v-.06a1,1,0,0,1,.09-.24v0l.29-.74,0-.07.08-.21,0-.06.2-.47h0l1.53,4.75s.85,3.53.4,4.37.52,4.3,1.18,4.37l-.61,4.37a67.85,67.85,0,0,0-.58,7.26c0,.28-.08.53-.12.69a16,16,0,0,0,.59,5.72c5.14,6.08,11.27.47,11.27.47s.71-3.21,0-3.85-.4-3-.4-3,.33-5.72.39-9.89a13.09,13.09,0,0,0-3.41-7.87l-.19.17a12.28,12.28,0,0,1-1.21-4.4c.26-1.47-.72-17.08-.72-17.08a92.82,92.82,0,0,0,.23-12.59h0c.09-.7.17-1.4.24-2.09.4-3.37.72-6.23.84-7.74h0v-.18c0-.4.05-.69.05-.83,0-.52,0-1.12.05-1.77.12-1.81.4-3.82.4-3.82l1.37-8.28a25.45,25.45,0,0,1,2.54-6.29l.18-.29h0l.17-.32,0-.05c.06-.11.12-.22.18-.35l0,0c.21-.42.43-.89.67-1.42,0,0,0-.08.05-.12l.18-.4a.37.37,0,0,1,.07-.16c0-.05.11-.26.17-.39s0-.12.07-.17.14-.32.21-.49l.09-.24c0-.12.1-.24.16-.36l.12-.32a2.44,2.44,0,0,0,.1-.24l.14-.36c0-.05.05-.11.07-.17.37-.93.73-1.85,1.05-2.68h0l.29-.75c3.33.2,5.6.39,5.6.39a76.35,76.35,0,0,0,.71-12.46,46.22,46.22,0,0,1,.83-10c0-.26.09-.49.13-.7l.09.07c1.63,1.29,2.8-2.95,2.8-2.95s-.44-4-1.05-8.76l-.06-.48a22.94,22.94,0,0,0,2.84.44l1.25-.14a34.63,34.63,0,0,0,6.26,2.84l3.46-6.39a25.91,25.91,0,0,1,2.28-3.79c1-1.29,4.75-5.4,4.69-6.17a21.5,21.5,0,0,1,2.54-7.2A16,16,0,0,0,437.51,282.44Zm-14.45,4.88c-1.37.58-2.67,3.79-2.73,4.76s-1.5,5.2-3,5.71a20.35,20.35,0,0,0-4.43,3.28c-.43,0-.92.1-1.42.18a50.42,50.42,0,0,0-1.5-8.08c-1.05-1.93,1.15-8.1,1.15-8.1s.21-6.22,1.57-7.7,1.05-5.22,1.05-5.22.32-1.54.45-2.24,1.94,0,1.95,0h0s3.52,1.92,4,4.81,4.36,7.91,4.36,7.91-.59,1.73,0,2.62-.12,1.5-1.49,2.07Z"/><path id="Path_337" data-name="Path 337" class="cls-5" d="M328.93,232.42a10.5,10.5,0,0,1,10.49-4.94V235h-4.56l-3.56-.91Z"/><path id="Path_338" data-name="Path 338" class="cls-6" d="M328.93,232.42a10.5,10.5,0,0,1,10.49-4.94V235h-4.56l-3.56-.91Z"/><path id="Path_339" data-name="Path 339" class="cls-7" d="M339.76,229.47l-5.59,3.91s0-.78-.19-1.85c-.27-2-.9-5.06-2.25-5.64-2.05-.91-24.87-9.49-16.77-12.38s20.51,6.58,20.51,6.58.64.22,1.66,2.33c.53,1.11,1.25,3,1.79,4.55S339.76,229.47,339.76,229.47Z"/><path id="Path_340" data-name="Path 340" class="cls-5" d="M384.36,235.5l.64-.3,1.78,2-1.46,3.11-2.48-1,.57-2.49Z"/><path id="Path_341" data-name="Path 341" class="cls-8" d="M375.92,417.6s-1.61-.19-2.25,2.31-1.6,9.44-1.6,9.44a17.13,17.13,0,0,1-1.15,5.19c-.77,1-1.54,7,3.91,7.76a7.9,7.9,0,0,0,7.82-2.93l-.19-16.82Z"/><path id="Path_342" data-name="Path 342" class="cls-8" d="M394.93,418.35a13,13,0,0,1,3.36,7.83c-.06,4.16-.39,9.87-.39,9.87s-.31,2.31.39,2.95,0,3.85,0,3.85-6,5.59-11.1-.47a16.13,16.13,0,0,1-.57-5.7c.41-2.23,1.55-12.28,1.55-12.28Z"/><path id="Path_343" data-name="Path 343" class="cls-7" d="M403.42,341.68a106.76,106.76,0,0,1-4.93,11.92,25.49,25.49,0,0,0-2.5,6.29l-1.35,8.27a47.33,47.33,0,0,0-.45,5.58c.07,1.86-3.33,29-3.33,29l-5.38,6.87s-2.37,4.8-2,6.81a9.91,9.91,0,0,1-1.05,6.16s-.13,6.29-.32,7.69.71,5.39,0,6.09-10.13.39-10.39-.77a34.23,34.23,0,0,1,1.16-6.73l.84-5.38s1.67-2.94,1.28-3.91.71-3.19.77-3.4,1.8-3.33,1.48-4.55,2-27.08,2-27.08l6.6-46.35Z"/><path id="Path_344" data-name="Path 344" class="cls-6" d="M403.42,341.68s-.52,1.45-1.24,3.36a64.7,64.7,0,0,1-3.7,8.55,26.47,26.47,0,0,0-2.5,6.29l-1.34,8.28a47.16,47.16,0,0,0-.45,5.57c0,.74-.49,5.42-1.12,10.81-1,8.24-2.21,18.17-2.21,18.17l-5.39,6.86s-.27.52-.61,1.34a12.59,12.59,0,0,0-1.37,5.44,10,10,0,0,1-1.05,6.16s-.13,6.29-.32,7.69.71,5.38,0,6.09-10.13.39-10.39-.76a34.83,34.83,0,0,1,1.15-6.73l.85-5.39s1.66-2.94,1.27-3.91.71-3.2.78-3.4,1.79-3.33,1.47-4.55c-.24-.92,1.05-16.11,1.65-23.32.21-2.26.34-3.73.34-3.73l5.68-39.88.46-3.22.46-3.26Z"/><path id="Path_345" data-name="Path 345" class="cls-7" d="M397.66,438.1c0,.71-9.05,1.73-10.35,1s0-10.32,0-10.32l.59-4.36c-.63-.07-1.6-3.53-1.15-4.36s-.38-4.36-.38-4.36L384.85,411l-.92-2.89c-1.5-3.31-3.67-12.75-5-19.8a57.46,57.46,0,0,1-1.27-8.35,80.25,80.25,0,0,0-.52-9.56s-1.05-8.53-2.44-11.22a105.53,105.53,0,0,1-3.9-12.8c-.57-2.21-1-3.81-1-3.81s9.69-.81,15.56-1.09c2.7-.13,4.6-.15,4.38.07a7.7,7.7,0,0,0-.27,3.09,80.7,80.7,0,0,0,1.29,14.22c.89,2.89,1.79,11.54,1.41,12.38a39.2,39.2,0,0,0-.26,6.41,28.75,28.75,0,0,1,1.13,7,93.42,93.42,0,0,1-.22,12.52s1,15.58.71,17.06,2,6.09,2,7,.63,7,.63,7S397.61,437.4,397.66,438.1Z"/><path id="Path_346" data-name="Path 346" class="cls-7" d="M402.72,250.82,401.61,252l-.71.78-4.2,4.51-10.84,1.22L380.1,257l-1.43-.39s0-2.89.26-6.36c.36-4.45,1.24-9.86,3.33-11.33a8.27,8.27,0,0,0,2.44-3.09,17.12,17.12,0,0,0,1.05-2.59c0-.12.07-.23.11-.34a28.47,28.47,0,0,0,1-4.75s1.38-.77,3.31-1.66c5-2.34,13.68-5.58,10.67,1.66a28.43,28.43,0,0,0-1.14,3.25c0,.17-.08.32-.12.48a10.49,10.49,0,0,0,.41,7.82h0a4.76,4.76,0,0,0,.43.67,3.66,3.66,0,0,0,.73.74l1.25,7.92.1.66Z"/><path id="Path_347" data-name="Path 347" class="cls-6" d="M400.86,228.51c-.57,1.38.28-1.12,0,0-2.29,1.63-7.67,6.26-10.7,6.26a8.41,8.41,0,0,1-4.4-1.17,28.36,28.36,0,0,0,1.12-5.09S405,218.51,400.86,228.51Z"/><path id="Path_348" data-name="Path 348" class="cls-7" d="M405.47,220.09A14,14,0,0,1,393,234c-.49,0-1,.08-1.47.08a14,14,0,1,1,14-14Z"/><path id="Path_349" data-name="Path 349" class="cls-6" d="M407.47,282.05l-2,5.2-4.14.14c-8.53.27-27.33.62-28.17-1.57a5.37,5.37,0,0,1-.29-1.73,33.77,33.77,0,0,1,1.44-8.46s.9-10.26.9-10.71-.77-7.63-.77-7.63l1.54-5.77,4.3-3s1.92,2.95,3.07,3.21a7.9,7.9,0,0,1,2.69,1.67s3.78,2.31,5,1,10.7-6.92,10.7-6.92l5,5.51Z"/><path id="Path_350" data-name="Path 350" class="cls-9" d="M407.46,282.84l-2,5.2s-1.62.07-4.14.15h-.25l-3.67.1a158.3,158.3,0,0,1-21-.53c-1.83-.26-3-.64-3.23-1.15a4.48,4.48,0,0,1-.23-1,6.48,6.48,0,0,1-.07-.77,33.78,33.78,0,0,1,1.45-8.46s.9-10.26.9-10.71-.77-7.63-.77-7.63l1.54-5.77,2.95-2.07,1.35-.94a19.77,19.77,0,0,0,1.47,1.94,3.87,3.87,0,0,0,1.6,1.26,8.09,8.09,0,0,1,2.69,1.68s3.78,2.3,5,1a97.67,97.67,0,0,1,9.36-6.12l1.35-.81.67.75,4.33,4.77Z"/><path id="Path_351" data-name="Path 351" class="cls-6" d="M339.76,229.47l-5.59,3.91s0-.78-.18-1.85A11.33,11.33,0,0,0,338.9,227C339.42,228.36,339.76,229.47,339.76,229.47Z"/><path id="Path_352" data-name="Path 352" class="cls-10" d="M359.38,242.75l-1.22-.33A10.65,10.65,0,0,1,355,244.8a17.85,17.85,0,0,0-3.58,1.85l-2.83,2.24s-2.09.32-1.47-1.15S346,244.4,346,244.4s-3.6-7.37-3.6-8.91-3-8-3-8-3.73,7.24-10.52,4.94c0,0,4.94,11.09,5.06,13.84s3.4,10.45,3.4,10.45a7.23,7.23,0,0,0,7.82,5.4s9.11,1.69,11.1,0a16,16,0,0,1,4.72-3.22,3.83,3.83,0,0,0,1.79-1.28V250Z"/><path id="Path_353" data-name="Path 353" class="cls-6" d="M348,250s1.61,6,.58,6.6Z"/><path id="Path_354" data-name="Path 354" class="cls-6" d="M401.33,288.16c-8.53.27-27.33.62-28.17-1.57a5.37,5.37,0,0,1-.29-1.73l27.86,1.47Z"/><path id="Path_355" data-name="Path 355" class="cls-6" d="M403.42,341.68s-.52,1.45-1.24,3.36c-3.53-.22-8.23-.44-12.68-.47-1.57,0-3.11,0-4.57.05a34.14,34.14,0,0,0-7.47.83,20,20,0,0,1-6.66.86c-.58-2.22-1-3.81-1-3.81s9.69-.82,15.57-1.1l.46-3.26Z"/><path id="Path_356" data-name="Path 356" class="cls-8" d="M410.93,318.21l-1.09,2.31s-.16.68-.35,1.77a45,45,0,0,0-.81,10A77.23,77.23,0,0,1,408,344.7s-23.59-2-30.51,0-10.33,0-10.33,0,.84-7.44-1.21-11.28c-1.4-2.63-2.39-14.33-2.42-22,0-3.55.18-6.24.62-6.79,1.41-1.73,7.44-19,7.44-19l1.37.07,3.67.2,20.87,1.1,3.28.17.34,1Z"/><path id="Path_357" data-name="Path 357" class="cls-5" d="M421.31,310.51l.2,2.06s-10.34-3.37-9.81-7.51,0-3.67,0-3.67l8.3.71Z"/><path id="Path_358" data-name="Path 358" class="cls-6" d="M421.31,310.51l.2,2.06s-10.34-3.37-9.81-7.51,0-3.67,0-3.67l8.3.71Z"/><path id="Path_359" data-name="Path 359" class="cls-6" d="M354.86,251.64a9,9,0,0,0,3.64,1.89,2.31,2.31,0,0,1-1.05-.52c-.74-.52-1.44-1.1-2.16-1.65a6.65,6.65,0,0,0-2-1.39A10.79,10.79,0,0,0,354.86,251.64Z"/><path id="Path_360" data-name="Path 360" class="cls-6" d="M355,254.34a4.46,4.46,0,0,1,.8,1.27,7.64,7.64,0,0,1-.06,4l-1.65-4c-.29-.68-.58-1.36-.93-2-.15-.28-1.1-1.43-1-1.68C352.47,251.21,354.7,254,355,254.34Z"/><path id="Path_361" data-name="Path 361" class="cls-6" d="M401.24,276.47a5.37,5.37,0,0,0,3-1.41c-1.71.21-3.32.89-5,1.24a7.46,7.46,0,0,1-4.66-.43A11.52,11.52,0,0,0,401.24,276.47Z"/><path id="Path_362" data-name="Path 362" class="cls-6" d="M396.42,264.74a1.16,1.16,0,0,1-.86-.22c-1.28-.73-2.54-1.5-3.79-2.29a25.94,25.94,0,0,1-3.7-2.56A18.92,18.92,0,0,0,396.42,264.74Z"/><path id="Path_363" data-name="Path 363" class="cls-6" d="M400,278.33a7.92,7.92,0,0,0,2-.17,2.69,2.69,0,0,0,1.65-1.08,1,1,0,0,0-.7.11,11.64,11.64,0,0,1-6.44.77A9.15,9.15,0,0,0,400,278.33Z"/><path id="Path_364" data-name="Path 364" class="cls-6" d="M387.84,308.1a21.24,21.24,0,0,1-4.1.8,25,25,0,0,1-3.24-.06l-5.24-.34-2.62-.16c-.31,0-1.58,0-.95-.63.31-.3,2.06-.11,2.52-.12.87,0,1.74,0,2.62,0,1.74,0,3.48,0,5.21.1C384,307.74,385.9,307.89,387.84,308.1Z"/><path id="Path_365" data-name="Path 365" class="cls-6" d="M381.76,310.7a19.93,19.93,0,0,0-3,.61,19.92,19.92,0,0,1-3.09.12,17.18,17.18,0,0,1-6-1.22C373.75,310.41,377.76,310.53,381.76,310.7Z"/><path id="Path_366" data-name="Path 366" class="cls-6" d="M370.53,313.44a8.74,8.74,0,0,1,1.14.32,13.5,13.5,0,0,0,6.82-.48,4,4,0,0,1-2.59,1.43,12,12,0,0,1-5,.19c-.52-.11-1.84-.3-2.1-.84C368.34,313.26,370,313.37,370.53,313.44Z"/><path id="Path_367" data-name="Path 367" class="cls-6" d="M382.93,317.58a18.2,18.2,0,0,1,2,.52c2.5.62,5.08-.23,7.58-.8a35.35,35.35,0,0,1,9.17-.85,9.1,9.1,0,0,0-2,.65c-.7.21-1.42.41-2.14.59-1.41.35-2.84.63-4.28.84a44.64,44.64,0,0,1-8.8.39,12.86,12.86,0,0,1-4.81-.62A5.35,5.35,0,0,1,382.93,317.58Z"/><path id="Path_368" data-name="Path 368" class="cls-6" d="M383.87,238.5a33.62,33.62,0,0,1-.84,8.6c-.3.84-.77,2.39-1.29,4.12-.56,1.93-1.18,4.08-1.64,5.77s-.79,2.82-.79,2.82-2.17,17.64-2.73,26a1.6,1.6,0,0,1,0,.44,13.17,13.17,0,0,1-.17,1.48c-1.25,8.34-8.44,21.22-10.86,22.24a7.48,7.48,0,0,0-2,1.4c0-3.55.18-6.24.63-6.78,1.41-1.73,7.43-19.05,7.43-19.05l1.38.08a6.68,6.68,0,0,1-.07-.77,33.86,33.86,0,0,1,1.45-8.47s.9-10.26.9-10.71-.77-7.63-.77-7.63l1.54-5.77,2.95-2.06c.37-4.45,1.24-9.86,3.34-11.33a8.34,8.34,0,0,0,2.43-3.09c.42.06-.33-.31-.33-.31Z"/><path id="Path_369" data-name="Path 369" class="cls-10" d="M385,235.2a3.81,3.81,0,0,0-3.24.36,8,8,0,0,1-5.14.77,71.07,71.07,0,0,0-9.43-1c-.66.26-1.93-.9-2.76.64s-1.22,2.37-2.05,2.76-2.31,1.6-2.1,1.86-2.09,1.79-2.09,1.79l4.67,15.21s-3,19.23-4.49,20.89-14.55,23.28-9.87,27.13a93.48,93.48,0,0,0,11.74,7.86c.52.26,2.36-3.2,4.93-4.29s10.52-15.52,11-23.73S378.93,259,378.93,259s2.75-10,3.71-12.7a34.08,34.08,0,0,0,.85-8.6Z"/><path id="Path_370" data-name="Path 370" class="cls-6" d="M410.93,318.21l-1.09,2.31s-.16.68-.35,1.77a.94.94,0,0,1-.53-.23c-1.6-1.29-11-11-11.47-19.56-.34-6.34-.17-11.8-.07-14.23,0-.77.06-1.23.06-1.33h0s7.31-8.85,6.48-12S401.2,255,401.2,255l-.28-2.2-.49-3.72-1.16-9,1.2.28a3.66,3.66,0,0,0,.73.74l1.25,7.92,4.33,4.77.7,29.05-2,5.19s-1.62.07-4.14.15h-.25Z"/><path id="Path_371" data-name="Path 371" class="cls-10" d="M415,270.25s-1.79-.7-1.92,0-.45,2.24-.45,2.24.32,3.73-1,5.2-1.57,7.69-1.57,7.69-2.16,6.16-1.14,8.07a52,52,0,0,1,1.53,8.39c.37,2.62.73,5.5,1.05,8.13.58,4.79,1,8.75,1,8.75s-1.16,4.23-2.77,2.94-11-11-11.47-19.55c-.31-6-.19-11.28-.08-13.87,0-1.09.08-1.71.08-1.71s7.31-8.85,6.48-12-2.76-19.93-2.76-19.93l-.34-2.59-.36-2.79-.08-.61L400,239.7h0c.2.05,7.4,1.68,8.35,2.63s6.81,2.3,6.81,2.3a5.13,5.13,0,0,1,3.64,3.74,4.16,4.16,0,0,1,.14.56c.77,3.72.53,4.17,1.05,4.81S415,270.25,415,270.25Z"/><path id="Path_372" data-name="Path 372" class="cls-6" d="M411.45,310c-2.62-.52-6.51-1.73-6.42-4.41.08-2.5,3.09-3.4,5.37-3.72C410.76,304.46,411.13,307.35,411.45,310Z"/><path id="Path_373" data-name="Path 373" class="cls-7" d="M419.59,308.65c-.11.23-.53.42-1.12.59a29.47,29.47,0,0,1-4.27.7s-8.91-.71-8.78-4.75c.09-2.9,4.12-3.67,6.38-3.84a12.54,12.54,0,0,1,1.5-.06S420,307.82,419.59,308.65Z"/><path id="Path_374" data-name="Path 374" class="cls-6" d="M419.58,308.65c-.1.23-.52.42-1.12.59-2.32-3.11-5.56-7.1-7.15-7.45l.48-.44a12.62,12.62,0,0,1,1.51-.06S420,307.82,419.58,308.65Z"/><path id="Path_375" data-name="Path 375" class="cls-10" d="M417.34,253.32l2.62.39a46.24,46.24,0,0,0,3.15,4.81,5.21,5.21,0,0,1,1.15,3.08s3.85,5.7,5.07,6.34,3.07,5,3.07,5,3,2,3,4.23a37.29,37.29,0,0,0,.57,5.58,15.68,15.68,0,0,1-1.73,6.29,21.49,21.49,0,0,0-2.5,7.17c.07.79-3.59,4.88-4.61,6.16a26.17,26.17,0,0,0-2.25,3.78l-3.39,6.42s-7.18-10.59-9.81-11.16a20.31,20.31,0,0,1,4.42-3.34c1.47-.51,2.89-4.72,2.95-5.7s1.34-4.17,2.69-4.72,2.05-1.15,1.48-2a3.84,3.84,0,0,1,0-2.63s-3.79-5-4.3-7.86-4-4.81-4-4.81l-2-4.87Z"/><path id="Path_376" data-name="Path 376" class="cls-6" d="M426.87,277.26a8.28,8.28,0,0,1,5.18-2,6.35,6.35,0,0,0-3.39,1.32,8.43,8.43,0,0,0-.94,1.2c-.3.43-2.77,3.58-3.14,3.08C424,280.17,426.38,277.68,426.87,277.26Z"/><path id="Path_377" data-name="Path 377" class="cls-6" d="M421.07,274.22a2.24,2.24,0,0,0,1.83-1.29,7.56,7.56,0,0,0,.57-2.28,32.86,32.86,0,0,1,.79-3.9,1.84,1.84,0,0,0-.11-1.57,5,5,0,0,0-.57-1.16,6.86,6.86,0,0,0-.8,2.45c-.24.87-.46,1.74-.67,2.62C422,269.51,421.13,274.22,421.07,274.22Z"/><path id="Path_378" data-name="Path 378" class="cls-6" d="M418.8,248.34a5.47,5.47,0,0,1-.89.91c-1.05.84-2.44,1.54-2.57,2.86a3,3,0,0,1-.16,1.26c-.33.58-1.16.53-1.81.42a3.14,3.14,0,0,1-1.54-.57c-.69-.59-.75-1.64-1.27-2.38a3.23,3.23,0,0,0-2.63-1.15c-1,0-1.95.18-2.93.23a7.9,7.9,0,0,1-1.88-.13,4.13,4.13,0,0,1-.61-.13,7.13,7.13,0,0,1-1.28-.43c-.22-.09-.42-.19-.63-.3a8.59,8.59,0,0,1-1.81-1.25,4.52,4.52,0,0,1-1.68-3.41c.05-.8.41-1.54.53-2.33.39-2.26-1.11-4.4-2.74-6-.66-.65-1.35-1.27-2-1.93a9.54,9.54,0,0,1-2.34-3.34,9.92,9.92,0,0,1-.42-4.19,28.26,28.26,0,0,0,.12-4.31c-.48-5.1-4.83-9-9.18-11.13l-.2-.1a14,14,0,1,1,18.8,20.45c-.05.17-.09.32-.13.48a10.58,10.58,0,0,0,.41,7.82h0c.21.05,7.4,1.67,8.35,2.62s6.81,2.31,6.81,2.31A5.13,5.13,0,0,1,418.8,248.34Z"/><path id="Path_379" data-name="Path 379" class="cls-8" d="M380,207.22c.28-.34.72-.51,1-.82.91-1,0-2.6.34-3.9a3.25,3.25,0,0,1,3.61-1.92c1.48.15,2.86.84,4.34,1a19.13,19.13,0,0,0,6.76-1.32c2.24-.58,4.94-.61,6.48,1.1s1.44,4.64,3.37,5.89a19.28,19.28,0,0,0,3,1.05,6.15,6.15,0,0,1,2.51,2.39,12.62,12.62,0,0,1,1.89,8c-.16,1.51-.6,3-.78,4.52a13.16,13.16,0,0,0,.32,4.72,5,5,0,0,0,2.84,3.77,4.65,4.65,0,0,1,1.05.36c.91.57.79,1.9.56,2.94l-.93,4.31c.89.68,2.29.38,3.14,1.1a2.55,2.55,0,0,1,.74,1.16,6.31,6.31,0,0,1-1.88,6.89c-1.05.84-2.44,1.54-2.57,2.85a3,3,0,0,1-.16,1.26c-.34.58-1.16.52-1.82.41a3.13,3.13,0,0,1-1.53-.56c-.69-.59-.75-1.64-1.27-2.38a3.27,3.27,0,0,0-2.62-1.16c-1,0-2,.19-2.94.24a8.74,8.74,0,0,1-6.19-2.23,4.53,4.53,0,0,1-1.68-3.41c.05-.8.41-1.54.53-2.33.39-2.26-1.11-4.41-2.75-6a15.92,15.92,0,0,1-4.34-5.27c-1-2.67,0-5.64-.3-8.48-.48-5.1-4.83-9-9.18-11.13C380.49,209.76,378.84,208.5,380,207.22Z"/><path id="Path_380" data-name="Path 380" class="cls-6" d="M414.26,251.25c-.7-.6-.75-1.64-1.28-2.38a3.25,3.25,0,0,0-2.62-1.16c-1,0-2,.19-2.94.23a8.67,8.67,0,0,1-6.2-2.23,4.54,4.54,0,0,1-1.69-3.41c.05-.8.41-1.54.53-2.33.39-2.26-1.11-4.41-2.74-6a16.08,16.08,0,0,1-4.35-5.27c-1-2.66,0-5.64-.29-8.48-.49-5.1-4.83-9-9.19-11.13-1-.5-2.66-1.76-1.54-3,.28-.34.72-.51,1-.82.91-1,0-2.59.34-3.89a2.14,2.14,0,0,1,.33-.72,2.79,2.79,0,0,0-2.36,1.87c-.32,1.3.58,2.91-.34,3.9-.29.32-.73.49-1,.81-1.12,1.29.53,2.56,1.55,3.05,4.35,2.13,8.7,6,9.18,11.13.27,2.84-.7,5.81.3,8.48a15.92,15.92,0,0,0,4.34,5.27c1.63,1.6,3.15,3.76,2.75,6a20.83,20.83,0,0,0-.53,2.34,4.51,4.51,0,0,0,1.68,3.4,8.68,8.68,0,0,0,6.2,2.24c1,0,2-.27,2.94-.24A3.22,3.22,0,0,1,411,250c.53.74.58,1.78,1.28,2.37a3.13,3.13,0,0,0,1.53.56c.65.12,1.48.17,1.81-.41a1.39,1.39,0,0,0,.15-.75,3,3,0,0,1-1.47-.55Z"/><path id="Path_381" data-name="Path 381" class="cls-3" d="M337.93,220.09H301.67V184.35H338Zm-.52-53.89H302.19c0-55.53,52.79-52.28,52.79-87.42a35,35,0,0,0-35.17-34.85h0c-19.35,0-35.19,16.71-35.19,35.4H249.41a70.38,70.38,0,0,1,140.75-.55c0,43.94-52.78,48.94-52.78,87.42Z"/><path id="Path_382" data-name="Path 382" class="cls-1" d="M157.06,209.44H147.7V200.2h9.36Zm-.15-13.89h-9.07c0-14.31,13.61-13.48,13.61-22.55a9,9,0,0,0-9.07-9h0a9.28,9.28,0,0,0-9,9.13h-9.07a18.15,18.15,0,0,1,36.29-.15c0,11.33-13.64,12.62-13.64,22.54Z"/><path id="Path_383" data-name="Path 383" class="cls-1" d="M227.88,273.62h-9.36v-9.21h9.36Zm-.14-13.89h-9.07c0-14.31,13.61-13.47,13.61-22.54a9,9,0,0,0-9.06-9h0a9.27,9.27,0,0,0-9.1,9.14H205a18.15,18.15,0,0,1,36.29-.15C241.34,248.52,227.74,249.82,227.74,259.73Z"/><path id="Path_384" data-name="Path 384" class="cls-1" d="M270.94,160h-6.77v-6.66h6.77Zm-.09-10.07h-6.58c0-10.37,9.86-9.77,9.86-16.33a6.54,6.54,0,0,0-6.57-6.52h0a6.72,6.72,0,0,0-6.58,6.62h-6.57a13.15,13.15,0,0,1,26.3-.39v.29c0,8.2-9.87,9.14-9.87,16.33Z"/><path id="Path_385" data-name="Path 385" class="cls-1" d="M386.73,169.41H382.9v-3.77h3.83Zm-.06-5.68h-3.73c0-5.87,5.57-5.52,5.57-9.24a3.67,3.67,0,0,0-3.67-3.67h0a3.8,3.8,0,0,0-3.72,3.74h-3.72a7.43,7.43,0,0,1,14.86-.06c0,4.61-5.55,5.16-5.55,9.23Z"/><path id="Path_386" data-name="Path 386" class="cls-1" d="M445.33,341.11h-3.84v-3.78h3.84Zm-.06-5.69h-3.72c0-5.87,5.58-5.52,5.58-9.24a3.7,3.7,0,0,0-3.72-3.67,3.8,3.8,0,0,0-3.72,3.74H436a7.43,7.43,0,0,1,14.86-.06c0,4.63-5.55,5.16-5.55,9.23Z"/></g></svg>