<svg id="Layer_1" data-name="Layer 1" xmlns="http://www.w3.org/2000/svg" viewBox="0 0 512 512">
	<defs>
		<style>.cls-1{fill:#1eb1e5;}</style>
	</defs>
	<path class="cls-1" d="M231.92,1.07h48.16a3.46,3.46,0,0,1,3.46,3.46V512a0,0,0,0,1,0,0H228.46a0,0,0,0,1,0,0V4.53a3.46,3.46,0,0,1,3.46-3.46Z" />
	<path class="cls-1" d="M3.46,262.71H51.62a3.46,3.46,0,0,1,3.46,3.46V512a0,0,0,0,1,0,0H0a0,0,0,0,1,0,0V266.17A3.46,3.46,0,0,1,3.46,262.71Z" />
	<path class="cls-1" d="M117.69,120h48.16a3.46,3.46,0,0,1,3.46,3.46V512a0,0,0,0,1,0,0H114.23a0,0,0,0,1,0,0V123.46A3.46,3.46,0,0,1,117.69,120Z" />
	<path class="cls-1" d="M346.15,192h48.16a3.46,3.46,0,0,1,3.46,3.46V512a0,0,0,0,1,0,0H342.7a0,0,0,0,1,0,0V195.46A3.46,3.46,0,0,1,346.15,192Z" />
	<path class="cls-1" d="M460.38,84h48.16A3.46,3.46,0,0,1,512,87.46V512a0,0,0,0,1,0,0H456.93a0,0,0,0,1,0,0V87.46A3.46,3.46,0,0,1,460.38,84Z" />
</svg>