<svg id="Layer_2" data-name="Layer 2" xmlns="http://www.w3.org/2000/svg" viewBox="0 0 512 512">
	<defs>
		<style>.cls-1{fill:#fff;}</style>
	</defs>
	<path id="Icon_awesome-dollar-sign" data-name="Icon awesome-dollar-sign" class="cls-1" d="M328.47,234.89,222.82,202A29,29,0,0,1,232,145.28l65.19,1.14a60,60,0,0,1,33.45,10.91,15.36,15.36,0,0,0,19.21-1.64l34.8-32.83a16,16,0,0,0,.42-22.54,15.7,15.7,0,0,0-1.78-1.58,139,139,0,0,0-84.53-31l.82-47.2a15.78,15.78,0,0,0-15.46-16L252.64,4a15.79,15.79,0,0,0-16,15.46l-.82,47.2-2.47,0a107.75,107.75,0,0,0-109.51,106c0,3.26,0,6.52.29,9.76,3.33,45.42,37.3,82.88,80.73,96.43L305.13,310A29,29,0,0,1,296,366.72l-65.18-1.13a60.11,60.11,0,0,1-33.42-10.92,15.34,15.34,0,0,0-19.21,1.63l-34.83,32.83a15.93,15.93,0,0,0-.43,22.54,16.72,16.72,0,0,0,1.77,1.59,139.07,139.07,0,0,0,84.54,31l-.83,47.2a15.79,15.79,0,0,0,15.46,16l31.46.55a15.79,15.79,0,0,0,16-15.46l.83-47.4c45.83-.09,89.28-26.58,105.18-69.68a108,108,0,0,0-63.68-138.8q-2.56-1-5.18-1.77Z" />
</svg>