<svg id="Layer_1" data-name="Layer 1" xmlns="http://www.w3.org/2000/svg" xmlns:xlink="http://www.w3.org/1999/xlink" viewBox="0 0 1366 497"><defs><style>.cls-1{fill:none;}.cls-2{fill:#0388d2;opacity:0.81;}.cls-2,.cls-4{isolation:isolate;}.cls-3{clip-path:url(#clip-path);}.cls-4{fill:#fff;fill-rule:evenodd;opacity:0.13;}</style><clipPath id="clip-path"><path id="Subtraction_1" data-name="Subtraction 1" class="cls-1" d="M1748.81,498.76H-208V-13.41C-96.22,1.85,27,16.2,158.32,29.24,294,42.72,436.44,54.61,581.57,64.58,731.52,74.88,879.38,82.78,1021,88.07c137,5.12,265.85,7.71,383.06,7.71,67.48,0,130.93-.87,188.59-2.6s110.29-4.32,156.13-7.71V498.76ZM1875-183.16h0c-11.26-2.59-23-5.23-35-7.84h35v7.84Z"/></clipPath></defs><path id="Subtraction_1-2" data-name="Subtraction 1" class="cls-2" d="M1748.81,498.76H-208V-13.41C-96.22,1.85,27,16.2,158.32,29.24,294,42.72,436.44,54.61,581.57,64.58,731.52,74.88,879.38,82.78,1021,88.07c137,5.12,265.85,7.71,383.06,7.71,67.48,0,130.93-.87,188.59-2.6s110.29-4.32,156.13-7.71V498.76ZM1875-183.16h0c-11.26-2.59-23-5.23-35-7.84h35v7.84Z"/><g class="cls-3"><path id="Artboard_1" data-name="Artboard 1" class="cls-4" d="M1014.77,357.79c-2-.84-3.15.28-4.2,1.59s-1.47,2.79-3.25,3.79a7.89,7.89,0,0,1-5.31-5.23c-3.61-9.23-8-18.16-12.24-27.13-4.86-10.2-8.86-20.72-8.92-32.15a4.15,4.15,0,0,0-2.29-4.23c-2.71.35-1.59,2.83-2.8,4.23a8,8,0,0,1-4.09,1.67,13.44,13.44,0,0,1-7.33-5.78c-.55-1.95,2.28-1.71,1.32-4.08-6.84-1.59-11.13-7.62-17-12.05-4,.24-8.08-.25-12,.83-3.63,1-7.12-.15-10.43-.83-6.26-1.25-13-.59-18.76-3.74l.11.1c-.39-1.14-.75-2.28-1.07-3.19a9.28,9.28,0,0,0-4.57-2.12c-2.17.15-3.17,1.93-5.82,2.94-7.71-.48-14-4.55-18.76-10.88a25,25,0,0,1-1.6-2.73c-3.58-6.09-7.76-6.35-12.83-.61a9.36,9.36,0,0,0,3.08,7.39,23,23,0,0,1,6.33,9.63,4,4,0,0,0,2.14,2.9c2,1,2.54-2.12,4.8-1.19,2.51,1.95-.85,6.2,3.72,8.47a13,13,0,0,0,9.13-1.91c3-1.65,4.81-4.78,8.28-6.35,3,2.56,2.29,7.18,6.85,9.25,5.71-.89,8.45,3.6,12.12,7.22a61,61,0,0,0-7.46,11.55,20.71,20.71,0,0,1-8.93,9.34,7.23,7.23,0,0,0-3.13,4.23l-11.18,3.54c-1.81,1.22-1.44,2.68-2.88,4.23-6.43,1.31-11.84,6.2-18.76,8.34-1.55.48-2.79,1.76-4.57,1.69h-4.55a13.07,13.07,0,0,1-8.41,3.79,5,5,0,0,1-3.56-4.11c-1.34-5.58-3.19-10.9-9.13-15,3-.34,3.81,2.43,6.19,1.36a10.12,10.12,0,0,0-4-6.86c-2.28-2.12-4.57-4-5.14-7.22-.34-2.12-2.28-3-3.88-4.23a16.65,16.65,0,0,1-7.12-12.41,5,5,0,0,0-1-2.92c-5.29-6-8.31-13.5-13.83-19.4-1.57-1.68-3.29-3.26-4.72-4.7a5.47,5.47,0,0,0-5.8,1.82c2.28,4.93,4.56,10.16,7.07,15.22,1.83,3.6,4,7,6.14,10.58,3.29,5.19,7.54,10,5.62,16.78a17.33,17.33,0,0,1,7.42,11.41,7.57,7.57,0,0,0,2.83,3.75c4.86,4.53,9.49,9.25,14.61,13.57a43.82,43.82,0,0,1,4.77,5.52c.29,1.38-1.12,2.41.11,4.4a35.94,35.94,0,0,0,5.39,5c2.9-.79,5.75-1.49,8.54-2.33,4.77-1.44,9.47-3.14,14.56-2.78,2.71.2,4.79-1.79,7.78-1.77a29.66,29.66,0,0,1-2.08,12.19A121.12,121.12,0,0,1,859.32,391a36.31,36.31,0,0,1-4.18,3.43A114,114,0,0,0,830,421.91a63.91,63.91,0,0,0-4.37,10.58c-1.41,3.73.69,7.15,1.47,10.58,1.48,6.54,3.69,12.93,5.7,19.37a9.55,9.55,0,0,1,0,4.57,37.37,37.37,0,0,0-.82,13.53,14.6,14.6,0,0,1-6.85,5.84c-7.3,2.52-11.71,8.46-17.62,12.48a8.24,8.24,0,0,0-3,5.25c2,3.41.94,7.79,2.92,11.37-.17,2.48-1.5,4.49-1.27,6.24a16,16,0,0,1-7.38,5.42,7,7,0,0,0-4.79,7.43c.46,3.79-1.48,7-2.69,10.43a40.76,40.76,0,0,0-9.82,10A69.12,69.12,0,0,1,765,569.79a16.09,16.09,0,0,0-9.14,2.41,53.29,53.29,0,0,0-22.68,2.67c-3.68-1.42-3.68-5.38-6.42-7.68,1.76-3.73.69-7-1.05-10.38-3.49-6.85-6.85-13.73-10.75-20.44a9.48,9.48,0,0,1-1.71-5.89A34.17,34.17,0,0,0,708,508.62c-1.71-2.84-2.76-6.05-4.57-8.87-5.45-8.7-4.56-17.44-.73-26.28a24.77,24.77,0,0,1,1.74-3.82,18.42,18.42,0,0,0,.89-20.06c.44-1.7.8-3.2,1.05-4.23-4-14.23-11.66-26.14-20.38-37.59a11.85,11.85,0,0,1,2.13-5c2.42-3.52,1.89-7.62,2.74-11.41,1.16-5.25-3.27-9.16-9.14-9.23h-9.12a16.84,16.84,0,0,1-3.82-5.63,9,9,0,0,0-7.59-4.57c-5-.17-9.87-.61-14.48,2.37a40.13,40.13,0,0,1-12.09,5A35.91,35.91,0,0,0,608,381.35,186.79,186.79,0,0,1,584.3,365.5c-6.55-14.46-7.51-15.67-15.73-19.79-4.08-3.45-1.84-7.6-2-11-.3-1.88-2.08-2.37-2.47-3.24,4-7.79,8-15.17,4.32-23.81.11-1,1.27-1.74,1.07-2.6-.16-1.95-1.76-2.92-2.28-4.34a9,9,0,0,1-.23-4.09c2.28-3,4.56-5.94,4.31-9.33,1.37-2.8,4-3.73,5.94-5.89,0-6.79,5.5-11.47,10.68-14.52s9.13-7.3,13.92-10.58a16,16,0,0,0,.66-8.7c2-3.28,3.7-6.6,7.56-8.23,6-2.57,9.13-7.26,11.18-13.19-1.59-2.79-2.87-6-5.84-7.37-2.9-.4-4.56,1.61-7,.94-.55-5.46-2.08-10.84,1-16.45,1.92-3.53,1-7.75-.16-11.75l4.56-2.3c9.73-.4,18.61,3,27.26.65,4.11-6.47,3-12.1-.59-17.67a10.61,10.61,0,0,0-5.35-3.56c-1.82-.76-3.92-1.2-4.56-3.61,3.88-2.71,7.92-.26,11.41-.34,2.29-1,.44-2.8,1.49-3.82,1.69-.55,2.71,1.13,4.36,1a20.53,20.53,0,0,1,5.43-2.35c1.94-1.44,2.28-3.32,3.42-4.7a25.43,25.43,0,0,0,11-5.5c1.3-5.91,5.57-8.47,12.37-8.13a5.23,5.23,0,0,0,6.09-3.83c-1-2.35-2-4.91-3-7.39.78-3.7,2-6.88,6.85-7.13,1.67,2.37,3,4.78,1.58,7.81,3.47.78,5.7-.91,8.51-2.12,1.74-6.13-4.22-9.35-5.93-14.07a11.43,11.43,0,0,0-6.85,2.69c-5.25,3.62-8,3.38-13.29-1.1,1.28-4.36-2.28-8.47-.27-13.93,5-6.35,10.5-7.89,17.23-6.2a8.92,8.92,0,0,0,4.57-5.57,14.77,14.77,0,0,1,7-8.46,12.33,12.33,0,0,0,6.11-9.36c11.89-4.23,24-8.46,37.85-7.11,5.14-1.63,5.14-1.63,12.51,0,1.37,1-.73,2.22.8,4,6.5-.89,12.94,1.8,19.58,3.6s13.7,2.11,20.18,5.08c-3.74,5-8.52,6.35-16,4.42a23.2,23.2,0,0,0-9.39-.25c.53,2,2.13,2.6,3.4,3.49V85.6a2.34,2.34,0,0,0,0,2.92,18.74,18.74,0,0,0,11.94,5.72c.71.13,1.23-.62,1.39-1.42,0-2.12-2.92-1.78-3.44-3.53,3.35-1.11,6.07,1,8.9,1.5,1.89-.76,2.6-1.67,1-3.13v.1a22.94,22.94,0,0,1,5.82-3.91c2.81-.94,5.37.72,7.54-.89a45.85,45.85,0,0,0-3.68-9.44c3-.15,6.07-.62,8.29,2.64.61,1.12-2,1.36-1.46,2.78s2.16,2.11,4.17,2.54a62,62,0,0,1,21.28-8.87c1.64.63-.23,2.88,2.28,3.36,4.06-2.82,9.86-2.11,14.45-4.4,1.76.42,1.85,2.43,3.72,2.6,3.39-.12,2.12-2.75,2.44-4.63C872.53,69.05,881.67,73,891,76c1.48-4.08,1.48-4.08-6-7.15a7.79,7.79,0,0,1-.69-.83c-.84-1.54-1.66-3.09-2.67-5,2.88-2.12,0-7.32,5.64-8.47,2.28,1.1,4.56,2.71,7.24,2.46,1.51,1.5.57,3.28,1.57,4.51L908,76.48c-.27,3.13-3.92,3.45-3.17,6.35,2,1,4.22.27,6.57.34a9.48,9.48,0,0,0,3.18-8.47c.77-1.5,3.74-.89,3.83-3.81-2.39-2.63-4.84-.83-7.49.74l-3.19-1.55c-1.21-1.18,0-2.88-1.21-4l-4-3.24c0-1.27.41-1.94,1.41-2.26,6.33,4.66,6.33,4.66,10,2,0-2.12-3.08-1-3.37-2.71a1.69,1.69,0,0,1,1.86-1.48l.17,0a26.63,26.63,0,0,1,10.22,2.12c2.4,1,4.82,1.56,6.85-.75-1.12-2.49-3.17-.78-5-1.65l-5.48-4.44c5.43-1.29,10.52.13,15.11-1,1-1.73-.8-2.28-1.16-3.51a9.15,9.15,0,0,1,2-.8c9.4-1.87,18.71-4.36,28.53-3.64,3.9.29,6.85-1,7.81-4.6A31.46,31.46,0,0,1,985,38.63c2.12.28,2.44,1.91,4,3.13,5.3,0,10.8,2.12,16.69,1.23a14.55,14.55,0,0,1,9.62,3.38c-2.44,3.87-7.83,4.23-11.41,7.85a10.76,10.76,0,0,0,12.37-2.88,6.44,6.44,0,0,1,6.1.8,11.75,11.75,0,0,0,7.85,2c4.38,0,9-.84,13,1.83a4.66,4.66,0,0,0,2.28.21c4,0,8.13-.3,11.53,1.37,2.77-1,1.19-2.79,1.62-4.23.57,0,1.17-.32,1.62-.19a60.66,60.66,0,0,0,11.28,2.12,17,17,0,0,1,10,4.23c3.77,3.47,8.93,4,12.44,5.9,3.18-.25,2.67-2.58,4.22-3.49,6.65.76,13.43,1.84,19.86.59,1.51-1.8-.52-2.49-.43-3.7a2.33,2.33,0,0,1,2.65-1.38,107.45,107.45,0,0,0,23.07,1.93,15,15,0,0,1,5.34,1.25c6.85,2.82,14,3.24,21.19,3.64,7.6.42,15.25,0,23.4,1.74l4.56,3.36c6.85,1,13.85-.27,20.86.74s13.7,1.82,20.55,2.73c.59-3.19-2.29-3.45-3.38-5.23,6.41.74,12.62,1.36,18.83,2.12a221.55,221.55,0,0,1,30,6.14,280.08,280.08,0,0,0,34.62,7.28,16.33,16.33,0,0,1,6.6,2.24c-1.19,1.55-2.28,3.26,0,4.72l-.11-.12v1.16h0a28.94,28.94,0,0,1-13.7-3.41c-3.92-2.31-8.88-2-13-2.52-1.83,1.08-.37,2.12-1,3.45l-3.7,2.94c3.45,3.5,8.15,4.49,13.88,6.82-9.36.61-13.85,5.4-16.84,11.74l-6.71-1.62c-2.61,0-3.88,1.58-6.17,1.94-3.47-1.88-7.08-1.25-10.78,1.25a22.35,22.35,0,0,1,2.29,7.6c2.28,1.84,4.72.87,6.34,2.39a11.48,11.48,0,0,0,6.49,5.44c-.64,3.32,1.48,5.57,3.51,7.77-.48,1-1.71,1.44-1.92,2.58.51,2.46,1.46,4.95-.34,7.13l2.12,4.24a2.77,2.77,0,0,1-2.28,2.71c-5.64-4-10.57-9-16-13.51a25.29,25.29,0,0,0-3.81-3,17,17,0,0,1-9.15-13.21c5-3.87,3.74-10.29,6.57-15a16.81,16.81,0,0,0-4.17-7.3,2.78,2.78,0,0,0-3.36.45c-1.37,1.42.75,2.52.41,3.91a8.58,8.58,0,0,1-3,3.88c-3.13-.51-4.27-3.45-6.85-5.36-3-.25-6.28-2.12-10-.15-.61,2.67-1.23,5.31-1.8,7.73.73,2.37,3.38,2.45,4.56,4.38-3.58-.21-6.71,1.69-10.15,1.12-1.62,0-1.76-1.86-3.22-2.12-10.66,1-21.53-1.39-32.39,1.53-4.56,5.71-2.92,13.92-9.65,19.22,5.75,2.7,11.16,4.23,15.77,7.47l3.51-2.78c8.65.28,13.43,5.23,17.06,11.62a44.83,44.83,0,0,0,3.35,5.91,16.1,16.1,0,0,1,3.24,13.27c-.91,5.06,0,10.2-1.57,15.26a11,11,0,0,1-7.19,8c-1.69,0-2.72-1.8-4.57-1.63-2.94.31-4.4,2.26-5.68,4.59-.5,2.43.29,5.08-.55,7.64-1.3,2-4.09,2.94-4.91,5.55a17.9,17.9,0,0,0,7.54,5.92,17.34,17.34,0,0,1,10,13.91c-4.56,4.23-7.83,5.31-12.21,3.81a8.76,8.76,0,0,0-3.22-10.41c.12-1.15.23-2.12.32-3.07-2.62-2.12-6-2.12-9.13-3.45-1.8-1.61-1.32-4.23-1.94-6.48-6.5-3.74-6.5-3.74-14.63,1.32-2.67-1.78-1.71-4.24-1.19-6.35a3.92,3.92,0,0,0-3.58-2.52c-4.29,3-7.19,8.11-13.22,10.16,2.88,4.23,9,3.64,10.14,8.21,4.84,0,8.83-2.82,14.26-1.74-3.33,4.13-7.76,7.22-9.13,12.47a54.81,54.81,0,0,1,17.9,19.62l-1.19,3.75c1.4,1.75,3.75.74,5.16,2h0a95.22,95.22,0,0,1-3.38,15.13c-2.1,7.71-7.71,12.7-13.51,17.88a9.68,9.68,0,0,1-3.95,1.83,46.77,46.77,0,0,0-11.82,5.41,10.28,10.28,0,0,0-9.24,2.5c-1.28,1,.43,3.21-2,4.12-1.37-1.52-.46-3.87-2.65-5.48l-4.56-1c-4.84,1-7.56,4.24-10.37,7.12a7.07,7.07,0,0,0,0,9.56,72.25,72.25,0,0,0,11.42,12.05c4.56,3.78,7.48,8.33,6.43,14.45a43.92,43.92,0,0,0,0,7.07c-1.44,3-5.18,3.68-8.49,5.57-1.87,2.71-3.86,5.86-7.81,7.28-1.41-1.44,0-3.37-1.14-5.14a4.65,4.65,0,0,0-4.15-2c-4.84-4.23-7.49-9.78-14.2-11.3-1.46-1-.34-3.94-3.38-4.24-1.85.15-2.58,1.4-2.69,3.11a26.9,26.9,0,0,1-3.06,9.87,6.28,6.28,0,0,0,1,7.71,19.26,19.26,0,0,1,4.7,8.88,58.27,58.27,0,0,1,15.32,13.95c-2.06,6.8,4.56,11.94,5.27,18.69-4.56-4.63-10.91-6.88-15.22-11.58a15.1,15.1,0,0,1-2.54-4.59c-.32-2.11,1.24-3.38.48-5.86-3.88-4-4.7-11.28-12.44-13.63.71-4.76.12-9.42,1.67-13.63a245.21,245.21,0,0,0-8.42-29.7c-4.68.4-6.65,3.94-10.46,5.46a6.18,6.18,0,0,1-4.11-1.46,14.83,14.83,0,0,1,.32-7.79,13.72,13.72,0,0,0-5-6.35c-.23-1.42-.41-2.6-.59-3.74-4.38-2.56-8.29-5.34-9.13-10.46a4.81,4.81,0,0,0-3.15-3.58c-1.78-.14-1.78,2-4,2.61-3.15,0-7,2.64-11,.15a15.55,15.55,0,0,0-4.56,2.11c-1.6,1.59-.69,3.68-1.4,5.53-1.36,1.67-3.9,1.84-6,3.93-2.28,7.33-12.34,9.34-15.27,16.53a18.94,18.94,0,0,1-5.29,2.31,4,4,0,0,0-1.35,4.76,24.07,24.07,0,0,1,.5,14.82,29.78,29.78,0,0,0-.32,5.42c-.75,2.24-4.06,4.12-2,7.28ZM708.15,132.62l-7-1.38c-2.28,2.11-3.18,5.12-5.87,6.79,3.49,3.39,5.43-1.18,8.29-.84,1.5.72,2.28,2.64,5,2.56l11.69-4.36c2.72.27,3.49,2.52,6.21,2.43,2.67-1.39,6.41-2.11,8.29-5,.17-2.26-1.65-3.59-1.24-5.73.69-1.82,1.35-4.06,4.09-4.42,2.46.12,3.22,2.6,5.73,2.77,2.55-1,2.46-3.28,2.46-5.44a9.5,9.5,0,0,0-4-3c.12,0,.34-.24.34-.3a4.4,4.4,0,0,0-.36-.76,27.35,27.35,0,0,1,15.59-1.1c2.51-1,4.56-2.12,4.56-4.62-1.91-2.3-4.36-2.11-6.84-1.63-4.57.79-9.14,1.7-13.59,2.48a6.33,6.33,0,0,1-7.64-3.68c-.94-2.73-2.29-5.51-1.53-8.7,3.24-5,10.55-6.14,13.69-11.5-7.12-4.23-13.21-2.11-16.23,5.74-1.78,1.8-4.56,1.56-6.84,3-2.65,3.83-8.36,6.92-5.21,12.85,1.9,2.12,4.8,2.54,6.48,4.66-2.8,2.75-7.41,3.34-8.56,7.32-.45,1.54,1.06,2.94.16,5.29-.47,1.57-2.67,2.24-4.77,2.9A3.58,3.58,0,0,0,708,132.7ZM786.51,179v.12c1.19-.74,2-1.6.73-3.55-2.72.93-5.11-1.36-7.9-1.44-8.9,8.47-12.19,14.18-13,22.94,5.78,3.43,11.64,6.35,18.83,2.52a27.61,27.61,0,0,1,4.73-1.39,15.07,15.07,0,0,1,12.32,1c6,3.17,13,2.11,19.38,3.34,2.28-1.78,4.45-3,5.3-5.5-5.8-7.58-13.91-12.17-23.72-16.19,5.5-2.29,5.82-6.35,8-10.22L799.34,173c-1.16,1.72-3.11,2.73-3.54,5.38-.27.74,2,1.27.91,3.28-2.14-.89-3.19,2-5.63,1.78ZM725,204.17c-2.28-.63-4.45-.67-5.68,1.72-.5,2.26,1.92,4.23.62,6.58a10.07,10.07,0,0,1-5.87,4.23c-1.58,1.51-1,3.56-3.26,4.24l-8.2-3.41c3.61-2.12,6.73.36,10-1.36a8.28,8.28,0,0,0,4-6.87,21,21,0,0,0-10.18-8.72,28,28,0,0,1-15.13-13.09c-1.24-2.11-2.74-3.7-6-3.06-.53.34-1.25.87-2,1.35-4.29,2.73-8.33,5.7-14.24,3.64a7.24,7.24,0,0,0-7.47,1.86c-1,1.8,0,3.73-1.5,5.44a14.62,14.62,0,0,1-2.54,1.55c-6.26,2.58-9.27,7.17-11.41,13.12a14.9,14.9,0,0,1-12.53,9.74,29.74,29.74,0,0,0-6.85,1.9c-3.33,1.25-3.77,2.57-3.29,6.59,5,2,8.65,2.3,15.71,1.39,6.66-5.69,9.86-7.6,19.88-7.6,8.28,0,16-2.83,24.12-3,3,0,5.8-.32,8,1.29,2.86,4.85,2,9.61-.48,14.59a35.65,35.65,0,0,1,7.58,5.27,24.85,24.85,0,0,1,17.1,7.49,7.72,7.72,0,0,0,6,2.33,14.06,14.06,0,0,1,9.13,3c.25.21.69.19,1.08.3a4.34,4.34,0,0,0,3.72-2.71c.16-1.57-1.26-2.92-.67-4.61,2.81-4,3.93-4.64,9.84-6,8.58,2.26,16.16,6,24.15,8.82a15,15,0,0,0,8.58.47c4.86-.95,9.7-2.12,14.86-.83,4,1,6.51-.51,8.58-4.23,1-1.83,1.87-3.75,2.92-5.55a20.2,20.2,0,0,0,2-17.88c-5.2-1.23-9.13,2.24-13.88,3.23-4-3-8.21-5-12.73-.67a29.38,29.38,0,0,0-11.17-4.24c-3.08-4.4-4.06-9.14-5.56-13.73-1.15-3.47-4-5-7.42-3.71L752.15,206c-1.59-.22-2.42-2.46-4.7-1.27-2.28,4.84,3.27,6.51,5,9.92-1.12,2.71-4.45,3.83-5.3,6.48-5-.36-4.56-4.36-5.89-6.6-4.38-3.54-10.68-5.74-7.89-12.7-1.44-4.05-5.07-5.91-8.68-7.73-7.64-3.83-14.58-8.34-18.89-15.62a2.27,2.27,0,0,0-2.13-1.42c-3.67,2.54-3.67,2.54-3.56,6.75a37.56,37.56,0,0,0,22.14,17.68c1.21.4,2.42,1,2.49,2.49ZM844.87,184c4.94,2.8,3.45,8.47,7.86,11.31a45.42,45.42,0,0,1,10.38,10c-2.28,1.25-1.41,3.15-1.05,5-1,1.59-3.42,2.31-3.47,4.77.94,3.23,3.81,4.08,7,4.12,5.53,4.85,9.79,5.32,17.46,1.87-.25-3.14-1.32-6.35-.91-9.08-1.3-3.5-6.41-3.73-6.39-7.84,2.17-.86,4.77,1,6.48-1.41.37-3.52-2.44-4.81-4.86-6-1.85,0-2,1.93-3.7,1.87-.32-1.57-.64-3.07-.93-4.47l-9.54-8.06a2.94,2.94,0,0,1,1.11-3.75c1.58-1.08,3.75-.17,5.44-1.48a9.26,9.26,0,0,0,1.59-6l-8-3.28a14.15,14.15,0,0,0-6,3.05c-1.21,1-2.42,2.68-3.81,2.87-4.13.58-5.55,3.71-8.68,6.55ZM350.38,351.72c-3.61.32-7.51-.64-10.14,2.12-2.69-.36-4.45-2.12-6.84-2A24.71,24.71,0,0,1,315.73,346c-1.64,3-4.57,4.12-6.26,6.34-.93,1.59.57,3.48-.93,5.19a3.87,3.87,0,0,1-3.11-3.54c3-2.39,1-6.77,3.68-10.07-5.19,2.48-9.63,6.05-14.91,6.07-3.63,2.12-3.79,5.32-4.68,8-2.28,2-3.76,4.47-6.73,5.27-3.24-1-5.18-3.53-7.19-4.67-5.23-1.4-9.13.93-12.78,1.88-6.17-1.4-8.26-5.9-10.32-9.46-1-7.75,2-14.22,2.92-20.56-2.76-4.1-6.57-4.8-10.95-4.42a36.9,36.9,0,0,1-12.83-.76c2.76-8.79,7.48-16.66,9.9-25.4-4.79-.72-9.36-1.84-13.37,1.36-1.3,2.92-1.3,6.22-3.93,8.78a91.32,91.32,0,0,1-17.55,4.49,26,26,0,0,1-12.12-19.22c2.06-8.84,7.6-16.36,6.19-25.57,7.9-4.74,15.18-10.11,23.19-13.82,4,.87,7.9.3,10.39,3,4.2-.4,6.55-3.05,9.26-5H257l4.06,2.65a12.6,12.6,0,0,1,5.27-.74,14.67,14.67,0,0,1,5.14,5.54c-1.71,6-2.12,12.49,5,17.29,3.88-6.83,3.28-13.46,1.43-20.06a8.88,8.88,0,0,1,2.29-8.6,59.46,59.46,0,0,1,19.08-14.81,57.77,57.77,0,0,0,12.05-9.17,30.2,30.2,0,0,1,1.49-8.46A9.62,9.62,0,0,0,318,212c1.78-2.11,3.9-1.39,5-2.39l5.29-6.26c5.85-2.33,11.8-3.54,17.21-5.21.8-1.54-1-2.12-.45-3.11,2.28-4.61,5.36-8,10.75-9.21,1.25-.27,2.28-1.06,3.56-1.42,5-1.46,9.63-4,15.5-4.23-1,3.13-4.57,3.47-5.78,5.61a3.48,3.48,0,0,0,4.57.74,61.2,61.2,0,0,1,13.53-4.61,6.11,6.11,0,0,0,3.31-1.8,7.35,7.35,0,0,1,5.41-2.77c.34-1.42,1-2.5,0-3.58-2.67,1.12-3.79,3.58-6.32,4.93a37.45,37.45,0,0,1-8.06-.3,9.17,9.17,0,0,1-3.72-6c1.62-2.8,4.56-5.23,5.2-8.79a9,9,0,0,0-3.49-1.35c-6.85,1.33-12.05,4.63-18.26,6,2.28-2.48,4.56-5.36,7.44-6.35a28.76,28.76,0,0,0,10.48-6.35,186.64,186.64,0,0,1,19.79.15,26.66,26.66,0,0,0,16.89-3.82c1.39-.8,2.92-2.32,5.53-.57-4.32,6.52-12.22,10.1-16.17,16.93,7,1.32,14.73-1.63,20.55,4.07,3-2.71,3-2.71,2.55-10.93-1.66-.84-3.74.13-5.47-1.12a14.09,14.09,0,0,1-2.13-4.52c2.72-3.09,2.1-7.56,5.57-10.14A29.92,29.92,0,0,0,423,136c-4.57-1.39-7.4-4.53-10.39-7.89l1.71-5-2.51-11.9c-3.53.8-5.32,3.28-7.92,4.51a40.71,40.71,0,0,1-8.31,3.53,6.3,6.3,0,0,1-5-3.47c-1.5-3,1.1-5.5,1.81-8.36-4.57-.74-5.25-5.57-9.61-6.56-4.57,2.12-9.63-1.46-14.54.28-3.5,3.64-4.43,5.22-6.14,11.57L355.65,118c.27,1.63,2.12,2.11,2.28,3.57C356.6,130.08,348.8,132,342.36,135a13.41,13.41,0,0,0-4.56,2.41c-1.62,3.68-1.08,7.94-3.88,11.32l-7.15,3.92a15.31,15.31,0,0,1-3.49-6.54,21.57,21.57,0,0,1,4.15-11.49c-3.65-1.42-7.33,0-10.61-1.85-6.37-3.53-12.12-8.46-20.11-8.8l-.57-.57a4.2,4.2,0,0,1,.77-4.87c-.66-1.59-2.83-1.57-3-3.22a29.58,29.58,0,0,1,12-9.72c7.56-3.68,15.68-6.35,22.26-11.23A58.75,58.75,0,0,0,353,82.22c2.42-.3,3.56,1.69,5.84,1.74,3.45-3.22,9.75-1.59,13.31-6.74-.52-2.11,2.28-3.61,3.93-5.39-.48-1.44-2.29-2.35-.57-4.24,5.63-1,11.75.34,18-.65,3.75,3.91,9.57,6.22,10.84,12.06-3.1,3-7.16,3.75-10.22,5.7-1,1-.55,2.56-2.06,3.19-4.56,1.4-10.2-1.14-14.86,3.37,4.57,1.41,7.49-3,11.83-1.15a10.46,10.46,0,0,1,3.81,3.6c3.54,6.9,11,6,17.9,8.91-1.78-3.47-5.69-4.68-3.91-8.19,3.88.28,5.94,3.79,10.05,4.23.27-2.39,2.28-3.64,4.2-4.82-1.33-3.39-5.89-5-4.57-9.38A5.17,5.17,0,0,1,421,82.52c2.28,1.46,3.6,4.61,7.33,5.43,1.78-3.44,8.4-1.52,9.13-6.94a15,15,0,0,0-5.19-4.1l-4.56-.45c-1.33-1.08-2.51-2-2.29-3.26.42-2.24,2.84-3.17,2.84-5.2a4.73,4.73,0,0,0-2.79-2.5c-6.62-2.12-13.22-4.36-17.44-10.12-.48-.65-1.5-1-2-1.25a32.07,32.07,0,0,0-10.52.57c-1.71-.25-2.46-1.56-2.78-1.54L382.7,55.28c-2.08,1.12-3,3.95-6.21,2.9-1.23-2.63.87-3.83,3.63-5.76C371.24,54.54,363.66,56.55,360,64c2.12,3.11,6.28,1.63,8.45,3.83a24.47,24.47,0,0,1-17.37,11.64,2.27,2.27,0,0,1-1.26-2c.51-2.33,3-2.33,3.2-4-.64-2.68-4.11-1.65-5.3-4,1.51-3.17-1.71-6.35-.63-9.75a8.5,8.5,0,0,1,6.27-3.28c4.43.23,7.74-2,11.05-4.41a44.42,44.42,0,0,1-10.93,0A80.1,80.1,0,0,1,333.81,66c-1.62,1.92-.36,3.66-2.28,4.8-4.13.76-9.29-2.11-13.33,1.83-1.16,1.07-1.07,2.92-2.49,3.93C297.22,79.45,297,77.93,291.56,74a17,17,0,0,0-12.05,4c-5.34.36-10.8-.64-16.32,1.12-1.35-1.18-3.47-.53-4.95-1.73.22-1.63,2.58-1.4,2.92-3.24-5.85-2-12.19-2.33-17.74-4.34-5.59,1.33-5.59,1.33-8.85-.81-1.72-.21-3.11,1.23-5,.75-1.46,0-1.55-2.31-3.38-2-5.93,1.27-11.87,2.46-17.78,3.71a6.26,6.26,0,0,1-3.83,0A9.13,9.13,0,0,0,197,72a15.07,15.07,0,0,1-13.83-.93,20.07,20.07,0,0,0-4.68-1.54c-4.09-1.12-8.2.21-12.1-.3-10-1.31-20.2-2.31-29.9-5.35a4.87,4.87,0,0,0-2.69-.36c-4.71,1.69-9.8,1.41-14.57,2.71-8.88,2.41-17.48,5.6-26.59,7.3-2.28.44-4.91,0-6.48,2-1.42,2.39.5,4.53.18,6.69-4.57,2.52-4.89,2.52-10.46,0-4.56,2.77-12,.93-15.68,6.92a33.89,33.89,0,0,0,13.92,1.08,6.35,6.35,0,0,1-2.28,5.24c-5.27.32-10.36,2.37-15.61,2.88a33.64,33.64,0,0,0-14.73,5.74,6.52,6.52,0,0,0-4,6c1.37,2.11,3.43.8,4.71,1.54s-.78,2.12.77,3.13c2.76.57,6.21.62,9,3.9L12.33,133.17a31.84,31.84,0,0,0,12.6-1.78c6.85-1.93,14-3.3,20.2-7.07a29.34,29.34,0,0,1,12-3.77,28.52,28.52,0,0,0,13.54-4.23c1.55-1.67,0-3.54,1.62-4.85,5.73-.36,11.11-2.58,16.66-4.23.87,2.41-2.65,2.71-1.78,5,6.69.26,12.23-3.47,18.12-4.78,4.57,1.14,8,3.54,12.49,3.71,5.82.25,10.41,2.32,12,8.1a38,38,0,0,0-.25,13.78c1.94,1.93,4.13.13,6.21,1.84-2.86,6.05.7,12.85-1.26,18.78-2,1.6-3.88,0-5.22,1.29-1,5,5.84,5.54,6.39,9.75-1,2.12-2.28,4.24-3.13,6.5a37.71,37.71,0,0,1-11,16,12.74,12.74,0,0,0-4.89,6.75,14.88,14.88,0,0,1-6.09,9.82c-1.92,10.06.32,19.39,1.66,28.68,2.29,1.35,4.18,2.48,6.08,3.56a7.46,7.46,0,0,1,4,5.33c.64,3.89,2.28,7.71,1.32,11.77a8.66,8.66,0,0,0,1.28,5.48,12,12,0,0,1,1.89,4.91,5.38,5.38,0,0,1-2.6,3.15h0c1.51,4.38,7.51,5.23,8.84,9.74.61,1.5-1,3,.54,5.37,2.7,1.27,3.13,5.76,7.06,7.54,1.3-1.8-.18-2.86-.67-4a58.15,58.15,0,0,1-3.72-8.64,102.06,102.06,0,0,0-6.71-18,10.34,10.34,0,0,1,.8-10.77,9.42,9.42,0,0,1,6.62,1.92c-.8,8.76,4.07,15.69,9.79,22.27-1.5,2.92-.34,5.18,1.24,7.45,1.11,1.61,2.67,2.9,3.83,4.42,3.56,4.78,10,8.23,8.54,15.64-1.37,2-3.22,4.09-1.71,7.09a8.3,8.3,0,0,0,2.83,2.12c4.38,2.12,8.42,4.91,12.62,7.34A151.79,151.79,0,0,0,188,323.46a15.73,15.73,0,0,0,11.85,1.12,9.54,9.54,0,0,1,10.93,3.09,87.75,87.75,0,0,0,7,6.65c6.57.55,12.19,4,18.76,4.84a17.61,17.61,0,0,0,4.84,8.09,6.3,6.3,0,0,1,1.44,5.37h-.12l10.75,10.93c5.89-2,8.29,2.51,12,3.95l2-1.39h0a5.27,5.27,0,0,1,4.23-6.34h.06a7.37,7.37,0,0,1,5.45,2.58c-.59,4,3.43,6.35,4.75,9.84a40.68,40.68,0,0,0-.57,7.3,13.6,13.6,0,0,1-6.66,13.72c-.69,1.63-.44,3.32-1.79,4.87l-4.56,2.43a30.08,30.08,0,0,1-2.85,7.37,6.83,6.83,0,0,0,.5,7.83c.64,1,1.94,1.67,1.83,3.47l-5.37,6.35c1.49,3.49,1.39,7.72,4.57,10.28a22.19,22.19,0,0,1,5.13,6.63,66,66,0,0,0,5.25,9.1c5.82,7.07,9.75,15.09,14.06,22.94a16.83,16.83,0,0,0,4.77,5.53q7.59,5.65,15.75,10.58a14.79,14.79,0,0,1,8.17,11.47c.6,4.95,1.83,9.84,2.88,14.82.87,4.23-.25,8.25-.3,12.38A119.14,119.14,0,0,0,326,559.73a16.15,16.15,0,0,1,.48,4.59c-.34,8.61-.5,17.23-1.57,25.59a38.77,38.77,0,0,1,4,10.39c.91,3.82,0,8,2.53,11.49l-.13.11c1-1.54,2.28-2.12,4.79-.89a48.1,48.1,0,0,1,2.79,10.9c-1.42,1.27-3.22.53-3.91,2.48,1.51,2.86-1.09,5.88-.82,9.4,2.28.61,4.91.67,5.64,3.32.25,1.78-1.78,3.09-1,5.63a125.44,125.44,0,0,0,14.65,18.61,36.24,36.24,0,0,0,19.66,11,49.49,49.49,0,0,1,8,1.74c3.95,1.52,6.73.42,9.52-2.56-3.68-3.45-9.41-3.12-12.85-6.9s-7.81-6.5-8.47-12.2c2.28-1.58,1.66-4.23,1.53-6.34.91-2.88,3.15-4.64,4.33-7-3.63-2.12-6.84-4-8.19-7.64a9.1,9.1,0,0,1,4-7.69c-1.76-4.08.59-7.09,2.65-10.16-5.73-1.44-7.22-3.59-5.89-8.46a22.62,22.62,0,0,0,7.87-.26c3.75-2.6-1-7.21,3.63-9.69,4.57-.62,9.91-.19,14.2-3,2.28-3,2.4-6.22,2.28-10-5-1.27-4.17-7.26-8.88-9.14,2.79-1.78,2.74-1.72,5.41-.72,3.36,1.27,6.37,3.79,10.34,2.66C410,569.23,412.35,561.29,414,554c1.53-2.54,3.88-1.54,5.29-2.45,4.16-6.35,6.26-12.7,3.08-19.5a7.93,7.93,0,0,1,2.95-4c5.89-3.87,11.27-8.57,18.46-10.35s12.9-6.35,14.34-13.08c2.05-9.67,4.9-19.39,3.81-29.46a10.08,10.08,0,0,1,2.74-8.15c6.07-6.88,10-14.82,14-22.82a7.52,7.52,0,0,0,.37-7c-.73-1.59-1.19-3.26-1.9-5.2-9.45-2-14.06-10.7-22.64-14.42-7,2.12-14.06-.48-20.73.19-2.28-1.69-1-3.91-1.87-5.59-4-1.24-7.35-3.51-10.43-4.23-2.85,0-3.61,2.58-5.91,1.72-1.25-1.16,0-3.14-1.46-4.13-1.87-1.61-4.41-2.27-5.73-4.23-.11-1.72-.25-3.41-.39-5.25a8.58,8.58,0,0,1-4.31-7.41,8.46,8.46,0,0,0-2.49-5.08,30,30,0,0,0-8.29-6.58c-9,.66-16.48-2.5-23.92-7-1.09-5.12-6.09-6.71-10.77-8.91,0-3.13-2.79-4.08-5-5.56-1.42-.94-3.72-1.34-2.65-3.77Zm807.8,220.75c.48,4.24,4.82,2.92,7.28,4.53a22.85,22.85,0,0,0,5.75-1.84,28.54,28.54,0,0,1,19-4.23,21.16,21.16,0,0,0,3.47-.13,34.79,34.79,0,0,1,14.43-7.47c3.83-1.16,8-1.33,11.89-2.52a51.69,51.69,0,0,1,9.29-1.48c6.3-.72,10.45,2.94,15.11,5.65,3.08,1.76,3.53,4.64,3.76,7.64,0,.7.62,1.23,1.85,1.31,3.45-2.22,6-6.2,11-6.69.22-.65-.55-.12.16-.35.22,0,.22.21-.26.27,1,2.12-1.46,3.41-1.41,5.59,3,1.29,1.16,3.3.46,5.18,3,2.59,1.78,5.72,1.32,8.47a11.81,11.81,0,0,0,3,5.27,28.93,28.93,0,0,0,10,2.73c3,.21,4.56-3,7.62-2.67,1.46,1.15.78,3.6,3.88,4.24,4.57-4,9.91-7.62,16.55-7.47a30.87,30.87,0,0,0,5.11-4.77c5.25-5.61,9.13-12.34,15.41-16.93a49.05,49.05,0,0,0,12.32-13.8c3.15-5,4.14-10.58,5.94-15.89,1-2.9,2.56-5.78,2.08-9.4-3-3.73-6.33-7.68-7.08-13-5.54-1.78-5.07-6.35-5.61-10.35-.9-1-1.67-2-2.56-2.86-5.57-5.46-9.13-11.57-8.26-19.47a14.26,14.26,0,0,0-1.21-5.12c-1.87-2-4-.63-5.8-2.71-.84-4.81-.94-10.58-4-16.11-2.83,4-3.1,8.2-3.61,12.26-1,7.66-3.15,14.82-9,20.44a11,11,0,0,1-10.59-3.68c-2.83-3-5.89-5.69-9-8.46a5.07,5.07,0,0,1-2.29-3.24,34.15,34.15,0,0,1,8.45-11.05l-2-2c-2.72.17-4.7,1.91-7.51,1.67-4.24-.91-7.69-3.81-11.55-6.35-.71,2.12,1.69,3.6.39,5.34a7,7,0,0,1-6.55,2.11c-5.23,2.78-5.52,7.88-7.9,12.38-2.4-.78-4.56.92-6.14.53a8.44,8.44,0,0,1-3.77-3.38,6.34,6.34,0,0,0-3.49-2.5c-4.22.44-3.47,4.38-5.27,6.69h-4.25c-.66,4.42-5.82,5.29-8,8.7-1.09.15-2.28-.55-3.65.42a7.39,7.39,0,0,0-1.58,2.12c-1.91,6.35-7.09,9.48-12.92,11.9a54.52,54.52,0,0,1-12.64,3.91c-7.35,1.08-12.08,6.35-18.65,8.76,1.37,5.46-4,9.91-1.6,14.82-.8,2.12-3.47,1.57-3.6,3.51.47,1.7,1.82,2.9,2,4.79a116,116,0,0,1,1.1,17.37,23.61,23.61,0,0,1-7.26,17.27ZM597.24,22.5c-9.73-2.23-19.4-4.41-29.68-3.73-3.39.21-6.52,1.89-9.88,1.46-6.32-.8-12.65-.16-19-.4a13.67,13.67,0,0,0-8.47,2,13.17,13.17,0,0,1-7.42,1.8c-7.57.16-15.15-.47-22.82.16s-15.73,2.12-23.7,2.54a30.92,30.92,0,0,0-5.79,1.31c-.9,1.49-.6,3.24-2.56,4.79-7.71,2.71-17.41.15-25.43,4.65a4.28,4.28,0,0,0,2.92,2.76,61.31,61.31,0,0,0,15.21,3.06,29.25,29.25,0,0,1,17,5.93c.6,4.66.6,4.66-1.34,10.35,1.48,1.73,4.56,1.48,5.7,3.7-.93,1.95-2.74,1.67-4.36,1.74s-3.53.32-3.65,2.77c2.44.61,5-1.59,7.76,1.38-4.34,2.92-9.95,4.57-12.6,9.82,0,2.47.11,5.39,0,8.34a51.79,51.79,0,0,0,2.65,16.25c.5,1.82,1.53,3.92,3.76,4,3,0,4.7,1.9,7.37,2.92,2.79,0,5.89,1,9.39-.13,3.61-5.63,9.29-10,13.7-15.28a25.63,25.63,0,0,1,17.23-9.9c2-.26,4-.92,6-1.06a22.19,22.19,0,0,0,9.27-3.26c3.19-1.74,5.93-4.24,9.58-5.23,11.3-3,21.87-8.47,33.81-8.61a12.44,12.44,0,0,0,1.19-8c2.92-5.25,9.13-6.12,13.14-9a6,6,0,0,1-1.55-5.46c1.28-2.24,3.81-1.94,4.57-3.74.52-2.48-2.7-4.24-1.46-7.52,5.77-2.62,13.51-2.49,19.24-7.38-4.57-1.34-8.56,1.35-13.08.23C602.65,23.59,599.89,23.11,597.24,22.5Zm673.86,385a4.18,4.18,0,0,1-3.18.19,11.52,11.52,0,0,0-9.35.72c.66,4.72,7,3.47,8.12,7.34.57,2.12,0,4.53,2.42,6.07,6.28,1.32,12.08,4,18.26,5.82a9.08,9.08,0,0,1,5.85,5.85c.79,1.92.66,4,1.75,5.44-.43,2-2.74,2.26-2.81,4.23h4.57c5.07,2.5,9.52,5.65,15.25,4.23,4-1.92,6-6.35,11-7a19.61,19.61,0,0,1,6.26,5,20.29,20.29,0,0,0,15.57,8.83v.1c.38-2.11-1.12-3-2.63-4.23a25.57,25.57,0,0,1-9.13-10.79,6.38,6.38,0,0,1-.25-1.36c.82-1.39,3-1.86,2.58-3.81-1.74-3-6-1.8-8.2-4.42-1-1.38-1.09-3.41-3.1-5.4-10.32-5.16-20.82-11.77-33-12.7-4.57,2.63-6.51,6.35-10.16,8.47-4.84-.66-5.16-5.42-8.4-7.05-.71-2.12-.18-4.06-1.35-5.76Zm-75-15.77c0-5.55,4.08-9.25,6.43-13.87-3.15-3-5.77-6.24-9.93-8.46A22.49,22.49,0,0,1,1182,381a9.91,9.91,0,0,0-3.38,2.62,22.06,22.06,0,0,1-10.47,7.73c-1.55,1.88-1.6,4.23-4,5.67-1.3.27-3-1.06-4.32-.21a7.4,7.4,0,0,0-3.51,4.82c.62,1.95.64,4.45,2,5.78a9.91,9.91,0,0,1,2.6,10.73c2,1.74,4.06,2.9,6.3,2.12,2.8-.89,5.09.12,7.55.78l9.66,2.6a4.89,4.89,0,0,0,4.6-5.25,2.17,2.17,0,0,0,0-.25,7.72,7.72,0,0,1,2.28-6.67,12.73,12.73,0,0,0,4.73-9.25c.93-2.39,3.31-2.11,4.13-3.61-.57-2.72-3.47-4.43-4.15-6.89ZM849.26,496.05a15.15,15.15,0,0,1-3,14.18c-3.49,4.23-2.14,9.5-1.75,14.41,0,1.18,1.32,2,2.28,2.77a16.62,16.62,0,0,0,6.17,2.94,13,13,0,0,0,10-9c1.44-5.1,1.87-10.46,4.38-15.28,2.76-5.27,1.85-11.56,5.43-16.58a3.59,3.59,0,0,0,.14-3,6.63,6.63,0,0,1,.87-4.51c.77-1.51,2.94-1.48,3.94-3.28,0-4.43,1.19-9.32-2.94-13.68-4.27,3.32-6.69,7.83-9.82,11.83-3.39,4.41-9.13,5-13.1,7.05A12.15,12.15,0,0,0,849.26,496.05Zm-580-420.16c6.69-5.71,15.2-3.81,22.49-6.35a85.34,85.34,0,0,1,10.88,2.12c4,1.44,6.23.19,9-3.92,0-1.58-1.89-2.56-1.8-4.63,1.19-2.37,3.31-5,1.51-8.23-4.73,0-6.62,4.23-9.77,5.94-2.29-.5-2.86-2.62-5.39-3.4-3.19.19-6.85-1.1-10.86-1.42-1.46-2.58-3.13-5.17-6.35-5.5a44.82,44.82,0,0,0-17.83.74C258.35,58,250.7,56.76,246,60c2,3.66,5.3,3.11,8.36,2.5A30.57,30.57,0,0,0,263,58.86c1.35-.77,2.74-2,4.56-.81,1,5-4.56,7.2-5.77,11.92a10.12,10.12,0,0,1,7.48,5.92ZM390.55,40.5c7.42-.23,14.47,1.57,21.16-1.08,1.19.2,2,1.23,3.29,1a145.82,145.82,0,0,0,18.05-7.77,26.76,26.76,0,0,1,8.84-3,79.12,79.12,0,0,0,11.91-2.85,23.19,23.19,0,0,1,7.05-1.4c4.57.11,8.5-1.61,12.76-2.45-.47-1.21-1.32-1-2-1-11.89-.51-23.76,1-35.63,0a5.22,5.22,0,0,0-2.29.19c-6.59,2.62-13.69,2.46-20.54,3a147.41,147.41,0,0,1-21.11,1c-3.75,1.86-6.33,5.1-10.68,3.55a6.09,6.09,0,0,0,.29,4.91,8.36,8.36,0,0,0,4.57,2.25c1.73.48,3.08-1.61,4.93-1.16,3.28,1.73-.53,3.28-.62,4.93Zm718.67,355.83a96.17,96.17,0,0,1,9.54,20.28c2.28,7.6,9.4,11.58,16.41,15.24.41.21,1.1,0,1.8,0a14,14,0,0,0,3.54-4c0-1.61-1-3.22-.27-5s1.94-3,1.78-4.78c-5.25-2.75-7.4-8.46-12.83-10.69.18-1.63.32-2.77.43-3.81a25.53,25.53,0,0,0-9.26-7.62,22.48,22.48,0,0,1-9.13-7.54A12.56,12.56,0,0,0,1106,384c-3.7-1.66-7.3-3.45-11-5.06-1-.47-2.28-1.59-3.42,0,0,1.65,1.62,1.63,2.58,2.26a11.61,11.61,0,0,1,4.77,4.24,15.91,15.91,0,0,0,8.67,7.87c.71,1.3,1.14,2.25,1.67,3.06ZM641,128.55c0-2.24,2.58-3.17,1.67-5.05-1.19-1.44-3.52-.38-4.41-2.12-.77-.85.55-2.12-.93-2.84-2.29-.7-3.75.51-5.37,1.8-3.81,3-3.28,6.92-3,10.8.6,1.18,2.15.48,2.61,1,.79,1.08-.3,2.12,1.11,3h3.86c1.37,2.12,2.92,3.88,2.4,6.5l-4,2.12c.52,2.82-1.6,4.23-4.11,5.08,1.41,1.61,4.29,0,4.56,2.82-1.11,1.16-4.11,1.12-3.51,4,3.72.7,6.62-2.31,10.47-2s7.81,1.4,11.58-1.42c-.9-2.54,2.28-4.44,1.5-6.94-1-1.48-2.69-.57-4-1.65C649.19,137.72,644.37,133.27,641,128.55Zm762.08,469.87c1.33.64,2.77,1.14,3.31,2.84a10.57,10.57,0,0,1-5.16,5.67c-2.17.4-2.58-1.14-4.2-1.93-1.48,3-4.4.79-6.6,1.68-12.89,8.76-27.62,14.81-40.88,23.76a8,8,0,0,0,5.39,2.71,42.88,42.88,0,0,0,14.72-8.46,26.72,26.72,0,0,1,12.47-5.48c2.67-6.19,10.72-6.48,14.22-11.69,7.76,1.67,12.28-3.45,17.14-5.67,2-1.68,1.37-3.71,3.47-4.81a14.09,14.09,0,0,0,9.31-6.24c-2.28,0-3.9,1.05-5.91,0-3.93-3.41-5.73-7.71-3-12.89-1.21-.92-2-1.87-3.65-1.34-.27,6.75-.71,13.46-5,18.88-2.13,1.19-3.88,2.12-5.64,3.09Zm-234.8-161.13-4-2c-2.29,0-2.29,2.56-4.32,2.58h-7.21c-1.8-1.29-3.4-3-5.66-3.22s-4.57-2.11-6.35.79c2.1,2.24,5.55,1.69,7.31,4a11.38,11.38,0,0,0,8.85,3.68,130.13,130.13,0,0,1,22.83,3.87,13.41,13.41,0,0,0,8.1-.29,9.65,9.65,0,0,1,4.29-1.13c6.85,2.46,10,2.48,12.12-.21a56.59,56.59,0,0,1-12-2.28c-6.44,2.94-12-.47-17.62-1.44-1.35-2,1.21-2.77.61-4.23-2.53-1.13-4.4.8-6.93-.11ZM343.42,45.14a8.73,8.73,0,0,0,3.1,2c5.07,1.42,10.32.74,14.68,1.61,3.54-.83,3.88-3.92,6.07-5,3.52-.31,3.79,2.25,4.43,4A50.43,50.43,0,0,0,388,48.91c5.75-.34,13.06-.81,15.2-1.91-6.46-3.81-13.35-1.69-19.63-.74-1.69-2.12,1.28-2.73,0-4.63-4.7.78-10.11,4.82-13.94-1-2.72.15-5.05-.61-7,1.34-1.34,1.07-.27,3.38-2.42,4.52a8.5,8.5,0,0,1-6.27-.44l-1.71-3.79a15.61,15.61,0,0,0-5-.48c-2.08.88-2.67,2.45-3.86,3.53ZM1206.23,409c-2.54,4.57-4.2,9.16-1.42,14.24,1.14,2.12.46,4.42.53,6.64a6.26,6.26,0,0,0,.34,1.42,3.8,3.8,0,0,0,3.29-1.2c1-4.24-.44-8.3-.14-12.22,2.62-.95,3.86.36,5.09,1.61.84,4,.75,8.47,5.87,10.58a9.41,9.41,0,0,0,1.23-5.67c-2.72-3.22-2.69-7.62-5.34-10.83,1.32-2.23,4.75-2.12,5.13-4.83-3.79-2.45-5.89,2.12-9.13,1.8-1.91-.78-2.49-2.9-4.56-4.23a15,15,0,0,1-.89,2.68ZM301.3,41.94c-.13-1.29,1.44-1.86.76-3.47-7.74.26-14.86,3.5-22.42,5.25l7.26.59c3.49,3.84,9.54,3.31,13.22,7C307.65,49.5,314.66,46,322.58,48c1.09-.85,2.9-.87,3.22-2.71-1.28-.8-1.31-2.71-3.06-3.28-3.36,1.16-5.85,3.79-10.21,4.59ZM580.67,86.56c-3.11-.36-4.57-2.54-7.12-2.37a4,4,0,0,0-3.15,2.48c1,2.56,3.53.87,4.9,2.12.82,3.45,5,4,6.49,7.11a31,31,0,0,1,6.57-1.34,47.33,47.33,0,0,0,13.15-3.81A2.89,2.89,0,0,0,603.38,88a4.66,4.66,0,0,0-2.49-2.54C593.7,85.21,586.78,86.37,580.67,86.56ZM1220.75,340c.77-1.08,2.28-1.91,1.41-3.64-2.94-3.28-8.37-1.34-11.41-4.55-1.57-3.2-.75-6.35.23-9.53,1.35-4.23-.64-7.6-2.51-11.05a5.26,5.26,0,0,0-4.13,3.88c2.28,4.8-3.75,9.06-1.76,14.09l3.88,4.24c.43,4.78.75,5.6,2.08,5.58,1.18-.83.75-2.73,2.42-3.26,3.85.34,6.57,2.92,10,4.24ZM611.94,139c-.69,2.12,1.92,3.34,1.48,4.89-.75,2.12-3.38,2.12-3.86,4.23,1.26,3.13,4.34.51,6.08,1.86a34.66,34.66,0,0,1,8.31-3.43c3.58-3,.75-7.57,4.22-10-1.57-3.11-4.56-2.85-6.85-3.23-2.53.78-3.24,2.68-4.29,4.12C615.07,138.54,613.06,137.44,611.94,139ZM300.12,303.48a32.9,32.9,0,0,1-8.72-5.39c-6.44-5.85-14.59-6.35-23-5.91,4.22,2.35,9.31,2.84,13.26,5.65l2.44,7.73C289.46,305,294.64,306.59,300.12,303.48Zm930.71,55.29a7.42,7.42,0,0,1-5.09,3.34c-1,.3-2.28-.78-4.29-.59-.2,1.82-2.76,2.47-3.39,4.74,2.87-.32,5.41-1.31,7.66.15,1.37,1.61.62,3.53,1.76,4.8l4.43,4.62c1.42-1.83-.59-3.54.32-5.1s3-.62,3.7-2.67a27.37,27.37,0,0,1-1-10.94c-1-1.5-1.76-3-4.57-3.26-.21,1.8,1.32,3.21.43,4.91Zm-904.3-46.9c-1.67-3.26-4.73-4-6.58-5.4-2.28-.47-3.42,1.37-4.72,1.16-2.45-.19-4-2.27-6.37-.87-1.39,1.38,0,3.77-2,5.19s-5.45-.53-7.42,2.7a25.65,25.65,0,0,0,5.94,0c2.28-.59,3.81,1,6.71,1.19C315.46,311.23,321.41,313.58,326.53,311.87Zm957.58,294.85c-3.77-1.14-8,.21-11.41-2.27a65.22,65.22,0,0,0-4,12.7C1276.76,617.64,1281.44,614.34,1284.11,606.72ZM1017.6,355.93c2,5.4.5,9.95,1.25,14.31a5.93,5.93,0,0,0,3.35,2.58C1028.76,369.48,1028.3,362.47,1017.6,355.93Zm-656-261.71c-2.06-4.1-5.71-6.22-10.16-8.06-2.51,3.09-7.46,4.23-7.44,9.27,4.06,1.18,5.25-2.24,8.05-3C355.35,91.15,357.57,96.36,361.59,94.22ZM343.67,52.91c-3.91-2.12-7.51,0-11.05.55-1.37,1-1,2.82-2.74,3.43-1.07.7-2.28-.72-3.74.19l3.9,4.23a40.46,40.46,0,0,0,10.64-4l3-4.63ZM1196.5,289.3c1.35,1.15,1.65,3.07,4,3.79a14,14,0,0,0,.71-13.31c-4.06,2.64-4.13,6.09-4.75,9.52Zm29,65.45c-2.49-3.52-4.57-7-9.54-7.52-1.71,4.91,4.2,6.35,4.56,9.91a4.41,4.41,0,0,0,5-2.39ZM1216.18,399a15.64,15.64,0,0,0,7.37,4c3.75-.85,6.69-2.25,7.6-6.22-4.61,3.87-9.77,2.92-15,2.26Zm-66-92.15a4.15,4.15,0,0,0-1.35,5.31,6.19,6.19,0,0,0,6-1.25,10.07,10.07,0,0,0,1.42-4.23,8.11,8.11,0,0,0-6,.16Zm62.24,140.32c4.91,1.76,9.13-1,13.7-1.07-10.66-2.06-10.66-2.06-13.7,1.07Zm-851-411.7a27.58,27.58,0,0,0-12.12-2.82C351.63,36.53,356.13,37.5,361.45,35.43ZM1220.9,339.89c.42,4.7,5.41,5.67,7.95,10,.45-5.25-.66-7.11-4.43-8.19-1.39-.38-2.92-.23-3.63-1.74ZM328.42,33.29a13.29,13.29,0,0,0-9.54,5.59c6.35-1.38,7.3-2,9.63-5.59Zm38.51.78c1.14,1.74,2.28,3.47,4.88,3.41a4,4,0,0,0,0-4.89c-2.28-1-3.49.48-4.86,1.56Zm21.16,43.22a10.26,10.26,0,0,0,4.11,1.59,4.24,4.24,0,0,0,2.55-3.54v.13c-2.28.49-5-.19-6.84,2Zm823.75,320.44c-2.28-.25-3.06,1.06-3.58,2.67,1.67-.34,3.51-.49,3.67-2.67ZM1223,452.32c2.28,0,3.49-1.59,4.56-3.22Zm7.94-7.54v3.39c1.16-2.12,3.22-2,3.77-3.83a5.06,5.06,0,0,0-3.88.57ZM331.3,611.8c.61,1.18-.37,3.15,2.28,3.87-.25-1.84-.18-3.39-2.28-3.77ZM259.62,293.28l5.62-2.11v.12c-2.74-1.46-4.38-.44-5.39,2.12ZM903.31,56.7c-.28-1.19-1-1.57-2.51-1.44.66,1,1.05,2,2.39,1.44Zm348.8,525.15c1.32.8,2.28,1,3-.87-1.42-.25-2.1.64-3,.95ZM856.93,68.27c-.16-.57,0-1.37-1.78-1.33L857,68.19ZM258.55,294.49c-.82.38-2.1.27-2.1,1.63,1.6.23,1.85-.72,2-1.74ZM9.13,135a.5.5,0,0,0,.3-.32.44.44,0,0,0-.38-.51.45.45,0,0,0-.28,0l-.32.33C8.33,134.69,8.7,135.11,9.13,135ZM621.25,24.69l.59-.44-.7.42Zm723.58,429.53.86.45c-.13-.66-.66-.26-1-.34ZM1196.16,256.09c0-.29.71-.55,0-.95ZM395,75.47l.32-.17h-.41ZM4.43,135.64l-.27.19h.36Zm616.71-111Zm-254.08,9.4ZM343.74,52.78ZM856.93,68.27ZM777.84,85.88ZM797.76,88ZM1326,90l.21-.3-.32.17Zm-.23,1h.28l-.16-.11ZM350.45,351.59Zm-107.63.81v.21l.21-.11ZM628.71,156.28h0Zm386.06,201.51ZM267.39,366l.2.11v-.21ZM628.78,156.17c-.43.57-.38-.4-.16.26,0,.23.3.12,0-.15ZM1271.1,407.53l.23-.21-.35.11Zm-1012.55-113,1.19-1.12h0c-.39.36-.8.72-1.19,1.1Zm972.38,150.27-.32-.13.2.26ZM265.1,291.31l.39.15-.27-.27Zm642.32-16.74-.18.28.29-.17ZM124.31,266.4l-.18-.15v.26Zm1127.8,315.37-.14-.15v.23Zm150.94,16.63Zm-244.87-25.92ZM724.88,204.2ZM708,132.7l.62.15-.5-.23Z"/></g></svg>