<?xml version="1.0" encoding="utf-8" ?>
<!-- Generator: Adobe Illustrator 24.1.0, SVG Export Plug-In . SVG Version: 6.00 Build 0)  -->
<svg version="1.1" id="Layer_1" xmlns="http://www.w3.org/2000/svg" xmlns:xlink="http://www.w3.org/1999/xlink" x="0px" y="0px" viewBox="0 0 627.2 220" style="enable-background:new 0 0 627.2 220;" xml:space="preserve">
	<style type="text/css">
	.st0{fill:#45B2E5;stroke:#45B2E5;stroke-miterlimit:10;}
	.st1{fill:#45B2E5;stroke:#45B2E5;stroke-width:6;stroke-miterlimit:10;}
</style>
	<path class="st0" d="M294.5,138.6c0-11.8,0.2-25,0.5-32.8h-0.5c-3.2,14.1-10.1,37-16.8,58.6h-12.7c-5-18.9-12.2-45-15.2-58.8h-0.5
	c0.6,8.1,0.9,22.3,0.9,34.1v24.7h-13.6V95.5h22.2c5.4,18,11.4,40.6,13.5,50.9h0.1c1.7-9.1,9.3-33.2,15-50.9h21.4v69h-14.4V138.6z" />
	<path class="st0" d="M372.9,134.7h-33v17.5h36.4l-1.8,12.2h-49v-69h48.9v12.2h-34.4v14.8h33L372.9,134.7z M373.4,75.6l-17.7,13.9
	h-13.4L356,75.6H373.4z" />
	<path class="st0" d="M403.4,107.7h-20.9V95.5h56.7v12.2h-20.9v56.7h-14.9V107.7z" />
	<path class="st0" d="M463.3,95.5v69h-14.9v-69H463.3z" />
	<path class="st0" d="M527.3,134.7h-33v17.5h36.4l-1.8,12.2h-49.1v-69h48.9v12.2h-34.4v14.8h33L527.3,134.7z" />
	<path class="st0" d="M555.9,136.8v27.6h-14.6v-69h30.3c15,0,23.1,8.3,23.1,18.9c0,9.2-5,14.3-10,16.3c3.4,1.2,8.6,4.8,8.6,17.1v3.4
	c0,4.6,0,9.9,1,13.1h-14.2c-1.2-3-1.4-8.2-1.4-15.5v-1c0-7.5-1.9-11.1-13-11.1L555.9,136.8z M555.9,124.9h12.5
	c8.2,0,11.3-3.1,11.3-8.9c0-5.6-3.7-8.8-11-8.8h-12.8V124.9z" />
	<path class="st1" d="M126.1,65.9l-0.2,116.9l-16.2,9.4v11.8l34.5-20.1V72L126.1,65.9z" />
	<path class="st1" d="M81,65.9c0.3,39.1,0.5,78.1,0.8,117.1l15.7,9.4v11.8l-33.3-20V72.2L81,65.9z" />
	<polygon class="st1" points="97.4,29.2 28.4,57.3 28.4,203.9 7.1,190.4 7.1,50 97.4,15.7 " />
	<polygon class="st1" points="109.7,29.4 178.7,57.5 178.7,204.1 200,190.6 200,50.2 109.7,15.9 " />
</svg>