<svg xmlns="http://www.w3.org/2000/svg" xmlns:xlink="http://www.w3.org/1999/xlink" viewBox="0 0 512 512"><defs><style>.cls-1{fill:url(#linear-gradient);}.cls-2{fill:url(#linear-gradient-2);}.cls-3{fill:url(#linear-gradient-3);}.cls-4{fill:url(#linear-gradient-4);}.cls-5{fill:url(#radial-gradient);}</style><linearGradient id="linear-gradient" x1="138.06" y1="300.2" x2="523.62" y2="77.6" gradientUnits="userSpaceOnUse"><stop offset="0.08" stop-color="#00ade6"/><stop offset="0.17" stop-color="#18b5e8" stop-opacity="0.87"/><stop offset="0.39" stop-color="#4cc5eb" stop-opacity="0.61"/><stop offset="0.49" stop-color="#60cbec" stop-opacity="0.5"/><stop offset="0.63" stop-color="#42c1ea" stop-opacity="0.66"/><stop offset="0.88" stop-color="#00ade6"/></linearGradient><linearGradient id="linear-gradient-2" x1="15.68" y1="233.94" x2="69.46" y2="202.89" gradientUnits="userSpaceOnUse"><stop offset="0" stop-color="#fcb316"/><stop offset="0.27" stop-color="#fcb418"/><stop offset="0.41" stop-color="#fcb620"/><stop offset="0.52" stop-color="#fcbb2e"/><stop offset="0.62" stop-color="#fdc141"/><stop offset="0.7" stop-color="#fdc95a"/><stop offset="0.78" stop-color="#fdd379"/><stop offset="0.86" stop-color="#fedf9d"/><stop offset="0.92" stop-color="#feedc7"/><stop offset="0.99" stop-color="#fffcf6"/><stop offset="1" stop-color="#fff"/></linearGradient><linearGradient id="linear-gradient-3" x1="50.62" y1="195.59" x2="170.66" y2="195.59" gradientUnits="userSpaceOnUse"><stop offset="0" stop-color="#00ade6"/><stop offset="0.15" stop-color="#00ade6" stop-opacity="0.97"/><stop offset="0.38" stop-color="#00ade6" stop-opacity="0.87"/><stop offset="0.67" stop-color="#00ade6" stop-opacity="0.72"/><stop offset="0.99" stop-color="#00ade6" stop-opacity="0.51"/><stop offset="1" stop-color="#00ade6" stop-opacity="0.5"/></linearGradient><linearGradient id="linear-gradient-4" x1="260.5" y1="417.81" x2="536.49" y2="258.47" gradientUnits="userSpaceOnUse"><stop offset="0" stop-color="#00ade6"/><stop offset="0.5" stop-color="#60cbec" stop-opacity="0.5"/><stop offset="0.65" stop-color="#46c3ea" stop-opacity="0.63"/><stop offset="0.98" stop-color="#05afe6" stop-opacity="0.97"/><stop offset="1" stop-color="#00ade6"/></linearGradient><radialGradient id="radial-gradient" cx="94.75" cy="180.07" r="7.53" gradientUnits="userSpaceOnUse"><stop offset="0" stop-color="#bcbec0"/><stop offset="0.01" stop-color="#b4b6b8"/><stop offset="0.07" stop-color="#969799"/><stop offset="0.14" stop-color="#7b7b7d"/><stop offset="0.22" stop-color="#656567"/><stop offset="0.31" stop-color="#555456"/><stop offset="0.42" stop-color="#49494b"/><stop offset="0.57" stop-color="#434244"/><stop offset="1" stop-color="#414042"/></radialGradient></defs><g id="Layer_1" data-name="Layer 1"><path class="cls-1" d="M448.36,147.53C373.15,193.81,297.94,209.72,269,234.31a119.91,119.91,0,0,0-46.73,52.76,137.61,137.61,0,0,0-5.42,28.79,139.57,139.57,0,0,0,5.1,49.77c-54.87-34.55-74.3-59.88-81.39-77.2a129.57,129.57,0,0,0-19-32.43c-.16-34.57,30.31-63.64,30.31-63.64l0,0c1.25-1.49,41.71-49.56,120-76.61C351.45,88.23,455.59,40.5,487.41,0,487.41,0,523.57,101.24,448.36,147.53Z"/><path class="cls-2" d="M69.86,217.39c-1.29,2.25-5.48,7-9.5,7h0c-19.94-.69-35.92,5.75-44.44,9.93,0,0,5.79-23.15,34.72-37.61,0,0,8.31-3.74,12.49-3.09S71.14,215.14,69.86,217.39Z"/><path class="cls-3" d="M170.66,159.1l-18.77,33.22,0,0S121.39,221.43,121.55,256c-2.07-2.58-4.33-5.18-6.78-7.74a75.43,75.43,0,0,0-18.59-14.68,75.57,75.57,0,0,0-28.93-8.68c-2.35-.27-4.66-.44-6.91-.52h0c4,.05,8.21-4.74,9.5-7s-2.57-23.14-6.75-23.78-12.49,3.09-12.49,3.09,7.23-55,57.85-60.75S170.66,159.1,170.66,159.1Z"/><path class="cls-4" d="M481.62,163.44s23.14,68-62.19,109.92c-14.68,6.42-26.75,11-34.71,13.92-28.5,10.37-47.83,16.15-47.83,16.15-15.12,4.66-25.6,7.45-35,17.36a50.61,50.61,0,0,0-8.33,11.87,49.9,49.9,0,0,1,31-11.12,284.81,284.81,0,0,1,22.47,63.18c12.17,53.55,6.16,99.34,0,127.28,0,0-23.14-56.41-53.51-75.21-39.49-24.45-50.37-42.82-58.17-71.15-2.05-7.45-8.08-38,9.28-69.07,15.34-27.46,42.21-38.38,60-45.86,4.23-1.77,16.11-5.63,39.87-13.35,22.45-7.29,33.51-11.41,42.13-14.88,13.19-5.33,30.64-12.46,50.86-25A274.68,274.68,0,0,0,481.62,163.44Z"/></g><g id="Layer_4" data-name="Layer 4"><circle class="cls-5" cx="94.75" cy="180.07" r="7.53"/></g></svg>